<?xml version="1.0" standalone="no"?>
<!DOCTYPE svg PUBLIC "-//W3C//DTD SVG 20010904//EN"
 "http://www.w3.org/TR/2001/REC-SVG-20010904/DTD/svg10.dtd">
<svg version="1.0" xmlns="http://www.w3.org/2000/svg"
 width="700.000000pt" height="700.000000pt" viewBox="0 0 700.000000 700.000000"
 preserveAspectRatio="xMidYMid meet">
<metadata>
Created by potrace 1.11, written by Peter Selinger 2001-2013
</metadata>
<g transform="translate(0.000000,700.000000) scale(0.100000,-0.100000)"
fill="#000000" stroke="none">
<path d="M680 6989 c-150 -27 -273 -83 -383 -174 -138 -114 -232 -266 -284
-461 -4 -16 -8 -1293 -10 -2839 l-1 -2810 22 -85 c70 -270 253 -474 509 -570
138 -52 -10 -50 3002 -47 l2800 2 95 32 c253 86 440 269 525 511 14 40 29 87
32 105 4 18 8 1288 10 2822 3 3061 6 2861 -56 3015 -45 111 -89 177 -176 265
-104 106 -233 183 -365 217 -19 5 -44 12 -55 16 -28 10 -5611 11 -5665 1z
m3135 -1093 c22 -4 72 -11 110 -17 495 -74 914 -321 1201 -709 200 -271 346
-655 400 -1050 35 -265 38 -536 10 -955 l-2 -30 -1423 -3 -1423 -2 6 -28 c3
-15 8 -50 11 -78 3 -28 8 -61 10 -75 3 -13 8 -37 11 -54 23 -135 87 -328 138
-420 41 -72 51 -89 61 -102 107 -131 177 -190 307 -257 161 -82 291 -110 528
-110 183 -1 239 3 355 28 212 45 464 159 713 323 l52 35 23 -28 c12 -15 29
-38 37 -50 21 -31 117 -162 292 -397 81 -109 148 -202 148 -207 0 -26 -296
-226 -470 -317 -168 -89 -455 -199 -590 -227 -14 -3 -56 -12 -95 -20 -38 -8
-90 -18 -115 -21 -25 -3 -52 -8 -60 -10 -69 -18 -590 -27 -695 -12 -22 3 -62
8 -90 12 -92 10 -229 36 -305 57 -41 11 -88 24 -105 28 -53 13 -216 79 -307
125 -238 119 -476 318 -628 523 -27 37 -57 78 -68 92 -32 44 -107 172 -150
260 -115 235 -187 488 -236 830 -34 234 -27 724 14 980 16 103 19 118 50 248
68 281 185 564 315 763 30 45 55 86 55 90 0 4 4 9 8 11 5 2 22 21 38 43 119
164 386 402 546 489 29 16 72 39 96 52 120 65 365 146 512 170 25 4 79 12 120
19 77 12 518 13 595 1z"/>
<path d="M3403 5070 c-256 -37 -456 -202 -568 -470 -47 -112 -90 -270 -110
-410 -12 -79 -14 -93 -20 -170 -4 -41 -8 -85 -10 -97 -2 -12 2 -23 8 -25 7 -2
379 -4 827 -4 l815 1 -1 110 c0 110 -9 248 -19 295 -3 14 -9 50 -15 80 -34
188 -117 371 -220 484 -42 46 -137 114 -200 144 -115 54 -340 83 -487 62z"/>
</g>
</svg>
