<svg xmlns="http://www.w3.org/2000/svg" viewBox="0 0 260 260"><defs><style>.a{fill:#ffe42e;}.b{fill:#1d1d1b;}</style></defs><title>favicon</title><rect class="a" width="260" height="260" rx="30.13"/><path class="b" d="M205.54,143.7H100q2.23,23,12.43,32.52t27.73,9.56a58.78,58.78,0,0,0,20.4-3.51,95.41,95.41,0,0,0,20.71-11.16l18.81,25.5q-28.37,22.95-64.06,22.95-39.86,0-61.2-23.9T53.51,131q0-25.83,9.08-46.38T89.05,52.23q17.36-11.79,41.27-11.79,36,0,56.1,22.63t20.07,63.11Q206.49,129.36,205.54,143.7Zm-44-30.27q0-42.08-30.27-42.07-14,0-21.84,10.35T100,115.34h61.51Z"/></svg>