<svg xmlns="http://www.w3.org/2000/svg" width="268.56" height="264.75" viewBox="0 0 268.56 264.75"><defs><style>.a{fill:000000;}</style></defs><title>13977 [преобразованный]</title><path class="a" d="M102.86,2.75Z" transform="translate(0 -0.12)"/><path class="a" d="M111.49,1.46" transform="translate(0 -0.12)"/><path class="a" d="M120.34.53Z" transform="translate(0 -0.12)"/><path class="a" d="M129.33.17Z" transform="translate(0 -0.12)"/><circle class="a" cx="138.34" cy="0.07" r="0.07"/><circle class="a" cx="147.3" cy="0.6" r="0.04"/><circle class="a" cx="156.1" cy="1.6" r="0.04"/><path class="a" d="M164.65,3.19Z" transform="translate(0 -0.12)"/><circle class="a" cx="172.86" cy="4.92" r="0.02"/><circle class="a" cx="80.29" cy="10.36" r="0.02"/><circle class="a" cx="88.38" cy="8.02" r="0.04"/><circle class="a" cx="96.91" cy="6.06" r="0.07"/><circle class="a" cx="105.82" cy="4.53" r="0.11"/><circle class="a" cx="115.03" cy="3.44" r="0.13"/><circle class="a" cx="124.42" cy="2.8" r="0.15"/><path class="a" d="M133.91,2.93a.19.19,0,0,0,.17-.18.18.18,0,0,0-.17-.17.17.17,0,0,0-.18.17A.18.18,0,0,0,133.91,2.93Z" transform="translate(0 -0.12)"/><path class="a" d="M143.37,3.23a.18.18,0,0,0,.17-.18.18.18,0,0,0-.17-.17.18.18,0,0,0-.18.17A.18.18,0,0,0,143.37,3.23Z" transform="translate(0 -0.12)"/><circle class="a" cx="152.72" cy="3.7" r="0.18"/><circle class="a" cx="161.85" cy="4.91" r="0.15"/><circle class="a" cx="170.68" cy="6.57" r="0.13"/><circle class="a" cx="179.08" cy="8.63" r="0.11"/><path class="a" d="M187,11.28a.07.07,0,1,0-.07-.07A.07.07,0,0,0,187,11.28Z" transform="translate(0 -0.12)"/><circle class="a" cx="194.42" cy="13.89" r="0.04"/><circle class="a" cx="66.17" cy="18.03" r="0.04"/><path class="a" d="M73.76,15.46a.09.09,0,1,0-.09-.09.09.09,0,0,0,.09.09Z" transform="translate(0 -0.12)"/><circle class="a" cx="81.94" cy="12.7" r="0.13"/><circle class="a" cx="90.65" cy="10.57" r="0.2"/><path class="a" d="M99.79,9.2a.25.25,0,0,0,.26-.24.24.24,0,0,0-.24-.26.25.25,0,0,0-.26.24h0A.26.26,0,0,0,99.79,9.2Z" transform="translate(0 -0.12)"/><path class="a" d="M109.3,7.93a.29.29,0,0,0,.29-.29h0a.29.29,0,1,0-.29.29Z" transform="translate(0 -0.12)"/><path class="a" d="M119.11,7.08a.32.32,0,0,0,.31-.29h0a.31.31,0,0,0-.62,0,.3.3,0,0,0,.3.3Z" transform="translate(0 -0.12)"/><path class="a" d="M129,6.7a.33.33,0,0,0,.33-.33h0A.33.33,0,0,0,129,6a.33.33,0,0,0,0,.66Z" transform="translate(0 -0.12)"/><path class="a" d="M138.94,6.77a.33.33,0,1,0,0-.66.33.33,0,0,0,0,.66Z" transform="translate(0 -0.12)"/><path class="a" d="M148.83,7.3A.33.33,0,1,0,148.5,7a.33.33,0,0,0,.33.33Z" transform="translate(0 -0.12)"/><circle class="a" cx="158.54" cy="7.84" r="0.31"/><circle class="a" cx="167.96" cy="9.27" r="0.26"/><path class="a" d="M177,11.46a.24.24,0,0,0,.24-.24h0A.23.23,0,0,0,177,11h0a.23.23,0,0,0-.24.22v0a.24.24,0,0,0,.24.24Z" transform="translate(0 -0.12)"/><circle class="a" cx="185.56" cy="13.36" r="0.18"/><path class="a" d="M193.58,16.21a.13.13,0,0,0,.13-.13.13.13,0,0,0-.26,0,.13.13,0,0,0,.13.13Z" transform="translate(0 -0.12)"/><circle class="a" cx="200.99" cy="18.88" r="0.09"/><path class="a" d="M207.73,22.25" transform="translate(0 -0.12)"/><path class="a" d="M52.68,27.24Z" transform="translate(0 -0.12)"/><circle class="a" cx="59.52" cy="23.91" r="0.07"/><path class="a" d="M67.12,21.24a.13.13,0,0,0,.13-.13.13.13,0,0,0-.13-.13h0a.13.13,0,0,0-.13.13A.13.13,0,0,0,67.12,21.24Z" transform="translate(0 -0.12)"/><circle class="a" cx="75.3" cy="18.37" r="0.2"/><circle class="a" cx="84.11" cy="16.09" r="0.29"/><path class="a" d="M93.44,14.65a.37.37,0,0,0,.29-.42.34.34,0,0,0-.29-.29.35.35,0,0,0-.3.41A.37.37,0,0,0,93.44,14.65Z" transform="translate(0 -0.12)"/><path class="a" d="M103.2,13.19a.41.41,0,0,0,.41-.41h0a.41.41,0,0,0-.41-.41h0a.41.41,0,0,0-.42.4h0A.42.42,0,0,0,103.2,13.19Z" transform="translate(0 -0.12)"/><path class="a" d="M113.29,12.15a.48.48,0,0,0,.48-.46.46.46,0,0,0-.46-.48.47.47,0,0,0-.48.46v0A.48.48,0,0,0,113.29,12.15Z" transform="translate(0 -0.12)"/><path class="a" d="M123.61,11.56a.52.52,0,0,0,.6-.4.51.51,0,0,0-.4-.6.34.34,0,0,0-.2,0,.5.5,0,0,0-.4.6A.51.51,0,0,0,123.61,11.56Z" transform="translate(0 -0.12)"/><path class="a" d="M134,11.46a.52.52,0,0,0,.52-.53.53.53,0,1,0-1.05,0h0A.53.53,0,0,0,134,11.46Z" transform="translate(0 -0.12)"/><path class="a" d="M144.44,11.71a.53.53,0,0,0,.53-.53.53.53,0,1,0-1.06,0h0a.54.54,0,0,0,.51.53Z" transform="translate(0 -0.12)"/><path class="a" d="M154.71,12.46a.53.53,0,0,0,.53-.53.53.53,0,0,0-1.06,0h0a.52.52,0,0,0,.51.53Z" transform="translate(0 -0.12)"/><path class="a" d="M164.72,13.66a.52.52,0,0,0,.51-.49h0a.51.51,0,0,0-.4-.6.5.5,0,0,0-.6.4.34.34,0,0,0,0,.2A.5.5,0,0,0,164.72,13.66Z" transform="translate(0 -0.12)"/><path class="a" d="M174.37,15.25a.47.47,0,0,0,.46-.46.46.46,0,0,0-.53-.4.43.43,0,1,0,.07.86Z" transform="translate(0 -0.12)"/><path class="a" d="M183.56,17.21a.4.4,0,0,0,.4-.4.4.4,0,1,0-.8,0h0A.4.4,0,0,0,183.56,17.21Z" transform="translate(0 -0.12)"/><path class="a" d="M192.21,19.52a.33.33,0,0,0,.33-.33.33.33,0,0,0-.33-.33h0a.33.33,0,0,0-.33.33.33.33,0,0,0,.33.33Z" transform="translate(0 -0.12)"/><circle class="a" cx="200.26" cy="21.77" r="0.26"/><path class="a" d="M207.62,25.09a.2.2,0,1,0,0-.4.19.19,0,0,0-.2.2h0A.19.19,0,0,0,207.62,25.09Z" transform="translate(0 -0.12)"/><circle class="a" cx="214.25" cy="28.03" r="0.11"/><path class="a" d="M220.13,31.7a.07.07,0,0,0,.07-.07h0a.07.07,0,0,0-.07-.06.06.06,0,0,0-.06.06A.07.07,0,0,0,220.13,31.7Z" transform="translate(0 -0.12)"/><circle class="a" cx="225.21" cy="35.19" r="0.02"/><path class="a" d="M40.27,37.45Z" transform="translate(0 -0.12)"/><circle class="a" cx="46.18" cy="33.87" r="0.09"/><path class="a" d="M52.87,31a.18.18,0,0,0,.18-.18h0a.18.18,0,0,0-.17-.17h0a.17.17,0,0,0-.17.17A.17.17,0,0,0,52.87,31Z" transform="translate(0 -0.12)"/><circle class="a" cx="60.33" cy="27.71" r="0.26"/><path class="a" d="M68.51,25.45a.34.34,0,0,0,.35-.35.35.35,0,0,0-.35-.35.35.35,0,0,0-.35.35h0A.36.36,0,0,0,68.51,25.45Z" transform="translate(0 -0.12)"/><circle class="a" cx="77.36" cy="22.59" r="0.44"/><circle class="a" cx="86.81" cy="20.52" r="0.53"/><path class="a" d="M96.75,19.55a.6.6,0,0,0,.62-.6h0a.62.62,0,0,0-.62-.62h0a.62.62,0,0,0-.61.61h0a.61.61,0,0,0,.61.61Z" transform="translate(0 -0.12)"/><path class="a" d="M107.11,18.32a.68.68,0,1,0-.68-.68.67.67,0,0,0,.68.68Z" transform="translate(0 -0.12)"/><path class="a" d="M117.8,17.5a.71.71,0,0,0,.72-.71h0a.73.73,0,1,0-1.45,0h0A.72.72,0,0,0,117.8,17.5Z" transform="translate(0 -0.12)"/><path class="a" d="M128.65,17.15a.77.77,0,1,0,0-1.54h0a.77.77,0,0,0,0,1.54Z" transform="translate(0 -0.12)"/><path class="a" d="M139.54,17.22a.77.77,0,1,0-.77-.77.77.77,0,0,0,.77.77Z" transform="translate(0 -0.12)"/><path class="a" d="M150.36,17.72a.75.75,0,1,0-.75-.74A.75.75,0,0,0,150.36,17.72Z" transform="translate(0 -0.12)"/><path class="a" d="M161,18.68a.72.72,0,1,0,0-1.44.72.72,0,0,0-.73.72h0A.73.73,0,0,0,161,18.68Z" transform="translate(0 -0.12)"/><path class="a" d="M171.23,20a.66.66,0,1,0-.66-.66.66.66,0,0,0,.66.66Z" transform="translate(0 -0.12)"/><circle class="a" cx="181.04" cy="21.06" r="0.59"/><path class="a" d="M190.32,23.89a.53.53,0,0,0,.54-.52.53.53,0,0,0-.52-.54.54.54,0,0,0-.54.52h0A.52.52,0,0,0,190.32,23.89Z" transform="translate(0 -0.12)"/><circle class="a" cx="199" cy="25.73" r="0.42"/><path class="a" d="M207,29a.33.33,0,0,0,0-.66.33.33,0,0,0,0,.66Z" transform="translate(0 -0.12)"/><circle class="a" cx="214.23" cy="31.55" r="0.24"/><path class="a" d="M220.71,35.07a.15.15,0,0,0,0-.3.15.15,0,1,0,0,.3Z" transform="translate(0 -0.12)"/><circle class="a" cx="226.38" cy="38.23" r="0.07"/><path class="a" d="M231.22,42Z" transform="translate(0 -0.12)"/><circle class="a" cx="34.16" cy="44.72" r="0.02"/><circle class="a" cx="39.81" cy="41.41" r="0.09"/><circle class="a" cx="46.3" cy="38.27" r="0.18"/><path class="a" d="M53.6,35.72a.29.29,0,1,0-.29-.29.29.29,0,0,0,.29.29Z" transform="translate(0 -0.12)"/><circle class="a" cx="61.67" cy="32.57" r="0.4"/><circle class="a" cx="70.48" cy="30.08" r="0.53"/><path class="a" d="M80,28.64A.64.64,0,0,0,80.6,28a.65.65,0,0,0-.63-.65.64.64,0,0,0-.65.63h0A.64.64,0,0,0,80,28.64Z" transform="translate(0 -0.12)"/><path class="a" d="M90,26.89a.75.75,0,1,0-.75-.75h0A.75.75,0,0,0,90,26.89Z" transform="translate(0 -0.12)"/><path class="a" d="M100.6,25.5a.86.86,0,1,0,0-1.72.87.87,0,0,0-.86.86h0A.86.86,0,0,0,100.6,25.5Z" transform="translate(0 -0.12)"/><path class="a" d="M111.57,24.45a.93.93,0,1,0-.19,0A.61.61,0,0,0,111.57,24.45Z" transform="translate(0 -0.12)"/><path class="a" d="M122.81,23.93a1,1,0,1,0-1-1A1,1,0,0,0,122.81,23.93Z" transform="translate(0 -0.12)"/><path class="a" d="M134.17,23.8a1,1,0,1,0-1-1A1,1,0,0,0,134.17,23.8Z" transform="translate(0 -0.12)"/><path class="a" d="M145.5,24.1a1,1,0,1,0-1-1A1,1,0,0,0,145.5,24.1Z" transform="translate(0 -0.12)"/><path class="a" d="M156.68,24.84a1,1,0,1,0-1-1A1,1,0,0,0,156.68,24.84Z" transform="translate(0 -0.12)"/><path class="a" d="M167.55,26a1,1,0,1,0-1-1A1,1,0,0,0,167.55,26Z" transform="translate(0 -0.12)"/><path class="a" d="M178,27.55a.93.93,0,0,0,.2-1.85H178a.93.93,0,0,0,0,1.85Z" transform="translate(0 -0.12)"/><path class="a" d="M187.91,29.45a.84.84,0,1,0-.84-.84h0A.84.84,0,0,0,187.91,29.45Z" transform="translate(0 -0.12)"/><path class="a" d="M197.21,31.59a.72.72,0,0,0,.72-.72h0a.73.73,0,0,0-1.46,0,.73.73,0,0,0,.72.74Z" transform="translate(0 -0.12)"/><path class="a" d="M205.82,34.05a.61.61,0,0,0,.61-.61h0a.61.61,0,0,0-.61-.61h0a.61.61,0,0,0-.62.6h0A.62.62,0,0,0,205.82,34.05Z" transform="translate(0 -0.12)"/><path class="a" d="M213.67,36.75a.51.51,0,1,0,0-1,.51.51,0,0,0-.51.51h0A.51.51,0,0,0,213.67,36.75Z" transform="translate(0 -0.12)"/><path class="a" d="M220.75,39.63a.38.38,0,1,0-.38-.38.38.38,0,0,0,.38.38Z" transform="translate(0 -0.12)"/><path class="a" d="M227,42.71a.27.27,0,1,0,.1-.53H227a.27.27,0,0,0,0,.53Z" transform="translate(0 -0.12)"/><circle class="a" cx="232.42" cy="45.66" r="0.15"/><circle class="a" cx="236.96" cy="49.13" r="0.07"/><path class="a" d="M240.62,52.87Z" transform="translate(0 -0.12)"/><path class="a" d="M23.88,56.2Z" transform="translate(0 -0.12)"/><path class="a" d="M28.33,53a.09.09,0,1,0-.09-.09.09.09,0,0,0,.09.09Z" transform="translate(0 -0.12)"/><path class="a" d="M33.68,49.94a.17.17,0,0,0,.17-.17.17.17,0,0,0-.17-.18.18.18,0,0,0-.18.18h0a.18.18,0,0,0,.17.17Z" transform="translate(0 -0.12)"/><path class="a" d="M39.89,47a.31.31,0,1,0-.31-.31.31.31,0,0,0,.31.31Z" transform="translate(0 -0.12)"/><circle class="a" cx="46.96" cy="43.71" r="0.42"/><path class="a" d="M54.86,41.69a.59.59,0,0,0,.59-.57.58.58,0,0,0-.57-.59.57.57,0,0,0-.59.57v0A.57.57,0,0,0,54.86,41.69Z" transform="translate(0 -0.12)"/><path class="a" d="M63.54,39.3a.7.7,0,0,0,.7-.7.71.71,0,0,0-1.42,0,.72.72,0,0,0,.7.72Z" transform="translate(0 -0.12)"/><path class="a" d="M73,37.18a.86.86,0,1,0-.86-.86h0a.85.85,0,0,0,.85.85Z" transform="translate(0 -0.12)"/><path class="a" d="M83.12,35.33a1,1,0,1,0-1-1A1,1,0,0,0,83.12,35.33Z" transform="translate(0 -0.12)"/><path class="a" d="M93.78,33.79a1.11,1.11,0,1,0-1.1-1.12h0A1.11,1.11,0,0,0,93.78,33.79Z" transform="translate(0 -0.12)"/><path class="a" d="M105,32.62a1.21,1.21,0,1,0-1.21-1.21v0A1.21,1.21,0,0,0,105,32.62Z" transform="translate(0 -0.12)"/><circle class="a" cx="116.53" cy="30.43" r="1.28"/><path class="a" d="M128.31,31.45A1.32,1.32,0,1,0,127,30.13a1.32,1.32,0,0,0,1.32,1.32Z" transform="translate(0 -0.12)"/><path class="a" d="M140.1,31.56a1.35,1.35,0,0,0,0-2.7,1.36,1.36,0,0,0-1.36,1.34v0A1.35,1.35,0,0,0,140.1,31.56Z" transform="translate(0 -0.12)"/><path class="a" d="M151.88,32.07a1.32,1.32,0,1,0-1.32-1.32,1.32,1.32,0,0,0,1.32,1.32Z" transform="translate(0 -0.12)"/><path class="a" d="M163.36,33a1.26,1.26,0,1,0-1.26-1.26h0A1.24,1.24,0,0,0,163.34,33Z" transform="translate(0 -0.12)"/><path class="a" d="M174.42,34.3a1.19,1.19,0,1,0-1.19-1.19,1.19,1.19,0,0,0,1.19,1.19Z" transform="translate(0 -0.12)"/><path class="a" d="M185,35.94a1.08,1.08,0,1,0-1.08-1.08A1.08,1.08,0,0,0,185,35.94Z" transform="translate(0 -0.12)"/><path class="a" d="M194.89,37.9a1,1,0,1,0-1-1A1,1,0,0,0,194.89,37.9Z" transform="translate(0 -0.12)"/><circle class="a" cx="204.12" cy="39.15" r="0.81"/><path class="a" d="M212.58,42.54a.69.69,0,1,0-.68-.7v0A.69.69,0,0,0,212.58,42.54Z" transform="translate(0 -0.12)"/><path class="a" d="M220.25,45.16a.53.53,0,1,0,0-1.06.53.53,0,0,0-.53.53h0A.53.53,0,0,0,220.25,45.16Z" transform="translate(0 -0.12)"/><path class="a" d="M227.08,48a.41.41,0,0,0,.46-.33.41.41,0,0,0-.33-.46.29.29,0,0,0-.13,0,.39.39,0,0,0-.33.46A.4.4,0,0,0,227.08,48Z" transform="translate(0 -0.12)"/><circle class="a" cx="233.06" cy="50.51" r="0.26"/><circle class="a" cx="238.16" cy="53.7" r="0.15"/><path class="a" d="M242.36,57.17a.07.07,0,0,0,.07-.06.07.07,0,0,0-.14,0S242.32,57.17,242.36,57.17Z" transform="translate(0 -0.12)"/><circle class="a" cx="22.86" cy="61.41" r="0.07"/><circle class="a" cx="27.85" cy="58.46" r="0.15"/><circle class="a" cx="33.74" cy="55.6" r="0.29"/><path class="a" d="M40.52,53.38a.42.42,0,0,0,.42-.42.42.42,0,1,0-.84,0h0A.42.42,0,0,0,40.52,53.38Z" transform="translate(0 -0.12)"/><path class="a" d="M48.13,50.89a.58.58,0,0,0,.58-.56h0a.58.58,0,0,0-.65-.5.54.54,0,1,0,.07,1.07Z" transform="translate(0 -0.12)"/><path class="a" d="M56.65,48.59a.75.75,0,1,0,0-1.5.75.75,0,0,0,0,1.5Z" transform="translate(0 -0.12)"/><path class="a" d="M65.93,46.45a.93.93,0,0,0,.94-.92.92.92,0,0,0-.92-.94.93.93,0,0,0-.94.92v0A.94.94,0,0,0,65.93,46.45Z" transform="translate(0 -0.12)"/><path class="a" d="M76,44.58A1.08,1.08,0,1,0,74.9,43.5,1.08,1.08,0,0,0,76,44.58Z" transform="translate(0 -0.12)"/><path class="a" d="M86.72,43a1.23,1.23,0,1,0-1.23-1.23A1.23,1.23,0,0,0,86.72,43Z" transform="translate(0 -0.12)"/><path class="a" d="M98,41.67a1.39,1.39,0,1,0-1.38-1.4h0A1.4,1.4,0,0,0,98,41.67Z" transform="translate(0 -0.12)"/><path class="a" d="M109.86,40.72a1.5,1.5,0,1,0-1.5-1.5h0a1.49,1.49,0,0,0,1.49,1.49Z" transform="translate(0 -0.12)"/><path class="a" d="M122,40.18a1.59,1.59,0,1,0-1.58-1.6v0A1.58,1.58,0,0,0,122,40.18Z" transform="translate(0 -0.12)"/><circle class="a" cx="134.29" cy="38.3" r="1.65"/><path class="a" d="M146.57,40.38a1.65,1.65,0,1,0-1.65-1.65h0A1.65,1.65,0,0,0,146.57,40.38Z" transform="translate(0 -0.12)"/><circle class="a" cx="158.63" cy="39.36" r="1.63"/><path class="a" d="M170.33,42.21a1.56,1.56,0,1,0-1.57-1.56,1.57,1.57,0,0,0,1.57,1.56Z" transform="translate(0 -0.12)"/><path class="a" d="M181.5,43.67A1.48,1.48,0,1,0,180,42.19h0a1.48,1.48,0,0,0,1.46,1.48Z" transform="translate(0 -0.12)"/><path class="a" d="M192.09,45.45a1.36,1.36,0,1,0-1.36-1.36,1.36,1.36,0,0,0,1.36,1.36Z" transform="translate(0 -0.12)"/><path class="a" d="M201.89,47.39a1.23,1.23,0,0,0,1.23-1.21A1.22,1.22,0,0,0,201.91,45a1.21,1.21,0,0,0-1.23,1.21h0A1.22,1.22,0,0,0,201.89,47.39Z" transform="translate(0 -0.12)"/><path class="a" d="M211,49.58a1.06,1.06,0,0,0,0-2.12,1,1,0,0,0-1.06,1h0A1.06,1.06,0,0,0,211,49.58Z" transform="translate(0 -0.12)"/><path class="a" d="M219.21,51.92a.88.88,0,1,0-.88-.88.88.88,0,0,0,.88.88Z" transform="translate(0 -0.12)"/><circle class="a" cx="226.61" cy="53.59" r="0.7"/><path class="a" d="M233.14,57.05a.54.54,0,0,0,.55-.53v0a.55.55,0,0,0-.55-.55h0a.55.55,0,0,0-.55.55h0a.55.55,0,0,0,.55.55Z" transform="translate(0 -0.12)"/><circle class="a" cx="238.79" cy="59.27" r="0.4"/><circle class="a" cx="243.52" cy="62.25" r="0.24"/><circle class="a" cx="247.35" cy="65.3" r="0.13"/><circle class="a" cx="250.25" cy="68.4" r="0.04"/><path class="a" d="M14.14,73.34Z" transform="translate(0 -0.12)"/><circle class="a" cx="17.84" cy="70.45" r="0.11"/><circle class="a" cx="22.43" cy="67.75" r="0.24"/><circle class="a" cx="27.95" cy="65.12" r="0.4"/><path class="a" d="M34.38,63.23a.55.55,0,0,0,.55-.55h0a.55.55,0,0,0-.55-.55h0a.54.54,0,0,0-.55.53v0a.55.55,0,0,0,.55.55Z" transform="translate(0 -0.12)"/><path class="a" d="M41.7,61A.75.75,0,1,0,41,60.2.75.75,0,0,0,41.7,61Z" transform="translate(0 -0.12)"/><path class="a" d="M49.91,58.76a.93.93,0,0,0,.94-.92.94.94,0,0,0-.92-.94.93.93,0,0,0-.94.92v0A.92.92,0,0,0,49.91,58.76Z" transform="translate(0 -0.12)"/><path class="a" d="M59,56.73a1.12,1.12,0,1,0-1.12-1.11h0A1.12,1.12,0,0,0,59,56.73Z" transform="translate(0 -0.12)"/><path class="a" d="M68.86,54.89a1.32,1.32,0,1,0-1.32-1.32h0A1.33,1.33,0,0,0,68.86,54.89Z" transform="translate(0 -0.12)"/><circle class="a" cx="79.53" cy="51.61" r="1.52"/><circle class="a" cx="90.89" cy="50.05" r="1.67"/><circle class="a" cx="102.85" cy="48.81" r="1.83"/><circle class="a" cx="115.27" cy="47.97" r="1.94"/><path class="a" d="M128,49.7a2,2,0,1,0-2-2A2,2,0,0,0,128,49.7Z" transform="translate(0 -0.12)"/><path class="a" d="M140.74,49.77a2,2,0,1,0-2-2A2,2,0,0,0,140.74,49.77Z" transform="translate(0 -0.12)"/><path class="a" d="M153.39,50.27a2,2,0,1,0-2-2A2,2,0,0,0,153.39,50.27Z" transform="translate(0 -0.12)"/><path class="a" d="M165.7,51.16a1.92,1.92,0,1,0-1.91-1.93v0a1.91,1.91,0,0,0,1.91,1.91Z" transform="translate(0 -0.12)"/><path class="a" d="M177.5,52.36a1.79,1.79,0,1,0-1.78-1.8v0A1.78,1.78,0,0,0,177.5,52.36Z" transform="translate(0 -0.12)"/><path class="a" d="M188.68,53.87A1.65,1.65,0,1,0,187,52.22h0A1.65,1.65,0,0,0,188.68,53.87Z" transform="translate(0 -0.12)"/><circle class="a" cx="199.14" cy="54" r="1.47"/><path class="a" d="M208.8,57.49a1.28,1.28,0,1,0,0-2.55,1.27,1.27,0,0,0-1.29,1.26v0a1.26,1.26,0,0,0,1.27,1.27Z" transform="translate(0 -0.12)"/><path class="a" d="M217.62,59.56a1.08,1.08,0,0,0,0-2.16,1.08,1.08,0,0,0,0,2.16Z" transform="translate(0 -0.12)"/><path class="a" d="M225.59,61.76a.88.88,0,0,0,0-1.76.88.88,0,1,0,0,1.76Z" transform="translate(0 -0.12)"/><path class="a" d="M232.66,64.09a.71.71,0,1,0-.7-.72v0A.7.7,0,0,0,232.66,64.09Z" transform="translate(0 -0.12)"/><circle class="a" cx="238.84" cy="65.85" r="0.51"/><path class="a" d="M244.08,69a.36.36,0,0,0,0-.71.36.36,0,0,0,0,.71Z" transform="translate(0 -0.12)"/><path class="a" d="M248.45,71.56a.22.22,0,0,0,.22-.22h0a.22.22,0,0,0-.22-.22h0a.22.22,0,0,0-.22.22h0a.21.21,0,0,0,.2.23Z" transform="translate(0 -0.12)"/><path class="a" d="M251.85,74.18a.09.09,0,1,0-.09-.09A.09.09,0,0,0,251.85,74.18Z" transform="translate(0 -0.12)"/><path class="a" d="M254.34,76.91Z" transform="translate(0 -0.12)"/><path class="a" d="M13.31,80a.07.07,0,1,0-.07-.07A.07.07,0,0,0,13.31,80Z" transform="translate(0 -0.12)"/><path class="a" d="M17.49,77.71a.19.19,0,0,0,.18-.18h0a.18.18,0,0,0-.17-.17h0a.15.15,0,0,0-.17.15v0a.17.17,0,0,0,.16.18Z" transform="translate(0 -0.12)"/><path class="a" d="M22.59,75.52a.33.33,0,1,0,0-.66.33.33,0,1,0,0,.66Z" transform="translate(0 -0.12)"/><circle class="a" cx="28.63" cy="72.76" r="0.51"/><path class="a" d="M35.58,71.33a.69.69,0,1,0-.68-.7v0a.68.68,0,0,0,.68.68Z" transform="translate(0 -0.12)"/><path class="a" d="M43.45,69.38a.91.91,0,1,0-.91-.91.91.91,0,0,0,.91.91Z" transform="translate(0 -0.12)"/><path class="a" d="M52.21,67.51a1.12,1.12,0,1,0-1.08-1.16v.09A1.11,1.11,0,0,0,52.21,67.51Z" transform="translate(0 -0.12)"/><path class="a" d="M61.84,65.77a1.35,1.35,0,1,0-1.35-1.35v0a1.34,1.34,0,0,0,1.35,1.33Z" transform="translate(0 -0.12)"/><path class="a" d="M72.32,64.18a1.57,1.57,0,1,0,0-3.14,1.58,1.58,0,0,0-1.58,1.56v0A1.56,1.56,0,0,0,72.32,64.18Z" transform="translate(0 -0.12)"/><circle class="a" cx="83.6" cy="60.88" r="1.78"/><path class="a" d="M95.59,61.64a2,2,0,1,0-2-2A2,2,0,0,0,95.59,61.64Z" transform="translate(0 -0.12)"/><path class="a" d="M108.17,60.79A2.16,2.16,0,1,0,106,58.62v0A2.16,2.16,0,0,0,108.17,60.79Z" transform="translate(0 -0.12)"/><circle class="a" cx="121.2" cy="57.89" r="2.29"/><path class="a" d="M134.42,60.2a2.36,2.36,0,1,0-2.31-2.4v.05A2.35,2.35,0,0,0,134.42,60.2Z" transform="translate(0 -0.12)"/><circle class="a" cx="147.62" cy="58.02" r="2.4"/><circle class="a" cx="160.55" cy="58.76" r="2.35"/><circle class="a" cx="172.98" cy="59.88" r="2.27"/><circle class="a" cx="184.78" cy="61.31" r="2.11"/><circle class="a" cx="195.84" cy="62.98" r="1.94"/><circle class="a" cx="206.1" cy="64.84" r="1.74"/><path class="a" d="M215.48,68.44A1.52,1.52,0,1,0,214,66.92a1.52,1.52,0,0,0,1.52,1.52Z" transform="translate(0 -0.12)"/><path class="a" d="M224,70.37a1.3,1.3,0,1,0-1.29-1.31h0A1.3,1.3,0,0,0,224,70.37Z" transform="translate(0 -0.12)"/><path class="a" d="M231.61,72.34a1.08,1.08,0,1,0-1.08-1.08h0a1.07,1.07,0,0,0,1.07,1.07Z" transform="translate(0 -0.12)"/><path class="a" d="M238.31,74.38a.86.86,0,1,0-.86-.86h0a.85.85,0,0,0,.85.85Z" transform="translate(0 -0.12)"/><path class="a" d="M244.08,76.44a.64.64,0,0,0,0-1.28.64.64,0,0,0-.64.64h0A.64.64,0,0,0,244.08,76.44Z" transform="translate(0 -0.12)"/><path class="a" d="M248.93,78.65a.46.46,0,0,0,.46-.44v0a.47.47,0,0,0-.46-.46h0a.46.46,0,0,0,0,.92Z" transform="translate(0 -0.12)"/><path class="a" d="M252.84,80.87a.29.29,0,1,0-.29-.29.29.29,0,0,0,.29.29Z" transform="translate(0 -0.12)"/><path class="a" d="M255.83,83.15A.16.16,0,0,0,256,83a.15.15,0,0,0-.15-.15.16.16,0,0,0-.16.15.16.16,0,0,0,.16.16Z" transform="translate(0 -0.12)"/><circle class="a" cx="257.88" cy="85.31" r="0.04"/><path class="a" d="M6.56,91.44Z" transform="translate(0 -0.12)"/><circle class="a" cx="9.36" cy="89.29" r="0.11"/><circle class="a" cx="13.09" cy="87.28" r="0.24"/><path class="a" d="M17.76,85.83a.42.42,0,1,0,0-.84h0a.42.42,0,0,0,0,.84Z" transform="translate(0 -0.12)"/><path class="a" d="M23.36,84a.59.59,0,0,0,.6-.58h0a.6.6,0,1,0-1.19,0h0a.59.59,0,0,0,.57.59Z" transform="translate(0 -0.12)"/><path class="a" d="M29.9,82.31a.82.82,0,0,0,.82-.81.82.82,0,0,0-.82-.82.82.82,0,0,0-.81.82A.81.81,0,0,0,29.9,82.31Z" transform="translate(0 -0.12)"/><path class="a" d="M37.37,80.65a1.06,1.06,0,1,0-1.06-1.06v.06A1.06,1.06,0,0,0,37.37,80.65Z" transform="translate(0 -0.12)"/><path class="a" d="M45.76,79.05a1.3,1.3,0,1,0-1.3-1.3,1.3,1.3,0,0,0,1.3,1.3Z" transform="translate(0 -0.12)"/><path class="a" d="M55.06,77.53A1.56,1.56,0,1,0,53.5,76h0A1.56,1.56,0,0,0,55.06,77.53Z" transform="translate(0 -0.12)"/><path class="a" d="M65.25,76.08a1.8,1.8,0,1,0-1.81-1.8,1.8,1.8,0,0,0,1.81,1.8Z" transform="translate(0 -0.12)"/><circle class="a" cx="76.31" cy="72.6" r="2.07"/><circle class="a" cx="88.2" cy="71.21" r="2.29"/><circle class="a" cx="100.81" cy="70.08" r="2.51"/><path class="a" d="M114,72.06a2.67,2.67,0,1,0-2.67-2.67v0A2.65,2.65,0,0,0,114,72.06Z" transform="translate(0 -0.12)"/><path class="a" d="M127.63,71.75A2.75,2.75,0,1,0,124.88,69,2.75,2.75,0,0,0,127.63,71.75Z" transform="translate(0 -0.12)"/><circle class="a" cx="141.34" cy="68.94" r="2.79"/><path class="a" d="M154.87,72.33a2.75,2.75,0,1,0-2.77-2.75,2.75,2.75,0,0,0,2.77,2.75Z" transform="translate(0 -0.12)"/><circle class="a" cx="167.94" cy="70.37" r="2.62"/><path class="a" d="M180.35,74.17a2.47,2.47,0,1,0-2.46-2.48h0A2.47,2.47,0,0,0,180.35,74.17Z" transform="translate(0 -0.12)"/><circle class="a" cx="192.02" cy="73.02" r="2.24"/><circle class="a" cx="202.84" cy="74.62" r="2"/><path class="a" d="M212.78,78.22A1.76,1.76,0,1,0,211,76.44a1.76,1.76,0,0,0,1.76,1.78Z" transform="translate(0 -0.12)"/><path class="a" d="M221.83,79.75a1.5,1.5,0,1,0-1.5-1.5h0a1.49,1.49,0,0,0,1.49,1.49Z" transform="translate(0 -0.12)"/><path class="a" d="M230,81.36a1.25,1.25,0,0,0,1.25-1.23,1.24,1.24,0,1,0-2.48,0h0A1.24,1.24,0,0,0,230,81.36Z" transform="translate(0 -0.12)"/><path class="a" d="M237.17,83a1,1,0,1,0-1-1A1,1,0,0,0,237.17,83Z" transform="translate(0 -0.12)"/><path class="a" d="M243.45,84.75a.77.77,0,0,0,.17-1.53.48.48,0,0,0-.17,0,.77.77,0,0,0-.86.68.78.78,0,0,0,.68.85Z" transform="translate(0 -0.12)"/><circle class="a" cx="248.8" cy="85.84" r="0.55"/><path class="a" d="M253.2,88.34a.38.38,0,0,0,.39-.37.37.37,0,0,0-.37-.39.38.38,0,0,0-.39.37h0a.38.38,0,0,0,.36.38Z" transform="translate(0 -0.12)"/><circle class="a" cx="256.68" cy="89.86" r="0.22"/><path class="a" d="M259.21,92.1a.09.09,0,0,0,.09-.08.11.11,0,0,0-.09-.1.09.09,0,0,0-.09.09h0A.11.11,0,0,0,259.21,92.1Z" transform="translate(0 -0.12)"/><circle class="a" cx="260.81" cy="93.94" r="0.02"/><circle class="a" cx="6.02" cy="98.83" r="0.04"/><circle class="a" cx="9.29" cy="97.22" r="0.15"/><circle class="a" cx="13.51" cy="95.63" r="0.31"/><path class="a" d="M18.67,94.64a.46.46,0,0,0,.48-.46v0a.48.48,0,0,0-.49-.48.47.47,0,0,0-.48.47h0a.46.46,0,0,0,.45.48A0,0,0,0,0,18.67,94.64Z" transform="translate(0 -0.12)"/><path class="a" d="M24.76,93.3a.7.7,0,0,0,.7-.7h0a.71.71,0,0,0-1.41,0h0A.71.71,0,0,0,24.76,93.3Z" transform="translate(0 -0.12)"/><path class="a" d="M31.79,92a1,1,0,0,0,1-.94.94.94,0,0,0-.94-1,1,1,0,0,0-1,.94v0a1,1,0,0,0,.94.94Z" transform="translate(0 -0.12)"/><path class="a" d="M39.76,90.69A1.2,1.2,0,0,0,41,89.49a1.19,1.19,0,0,0-2.38,0A1.2,1.2,0,0,0,39.76,90.69Z" transform="translate(0 -0.12)"/><circle class="a" cx="48.66" cy="87.88" r="1.47"/><path class="a" d="M58.48,88.31a1.76,1.76,0,1,0-1.75-1.76,1.76,1.76,0,0,0,1.75,1.76Z" transform="translate(0 -0.12)"/><path class="a" d="M69.21,87.21a2.05,2.05,0,1,0-2-2.1v.1A2.06,2.06,0,0,0,69.21,87.21Z" transform="translate(0 -0.12)"/><path class="a" d="M80.84,86.2a2.33,2.33,0,1,0-2.33-2.33,2.33,2.33,0,0,0,2.33,2.33Z" transform="translate(0 -0.12)"/><circle class="a" cx="93.32" cy="82.6" r="2.6"/><path class="a" d="M106.56,84.64a2.84,2.84,0,1,0-2.84-2.84h0A2.84,2.84,0,0,0,106.56,84.64Z" transform="translate(0 -0.12)"/><path class="a" d="M120.4,84.25a3,3,0,1,0-3-3A3,3,0,0,0,120.4,84.25Z" transform="translate(0 -0.12)"/><path class="a" d="M134.55,84.21A3.17,3.17,0,1,0,131.4,81h0A3.17,3.17,0,0,0,134.55,84.21Z" transform="translate(0 -0.12)"/><path class="a" d="M148.66,84.55a3.21,3.21,0,1,0-3.21-3.21A3.21,3.21,0,0,0,148.66,84.55Z" transform="translate(0 -0.12)"/><path class="a" d="M162.36,85.18A3.15,3.15,0,1,0,159.22,82h0A3.15,3.15,0,0,0,162.36,85.18Z" transform="translate(0 -0.12)"/><path class="a" d="M175.4,86a3,3,0,1,0-3-3A3,3,0,0,0,175.4,86Z" transform="translate(0 -0.12)"/><circle class="a" cx="187.64" cy="84.09" r="2.79"/><path class="a" d="M199,88.09a2.55,2.55,0,1,0-2.56-2.55A2.55,2.55,0,0,0,199,88.09Z" transform="translate(0 -0.12)"/><circle class="a" cx="209.51" cy="86.82" r="2.27"/><circle class="a" cx="219.07" cy="88.29" r="1.98"/><path class="a" d="M227.71,91.62a1.71,1.71,0,0,0,1.71-1.69,1.7,1.7,0,0,0-3.4,0v0a1.69,1.69,0,0,0,1.69,1.69Z" transform="translate(0 -0.12)"/><path class="a" d="M235.42,92.88A1.41,1.41,0,1,0,234,91.44a1.41,1.41,0,0,0,1.41,1.44Z" transform="translate(0 -0.12)"/><path class="a" d="M242.19,94.17a1.14,1.14,0,1,0,.21-2.28.74.74,0,0,0-.21,0,1.14,1.14,0,0,0,0,2.28Z" transform="translate(0 -0.12)"/><path class="a" d="M248.08,95.48a.88.88,0,1,0-.88-.88.88.88,0,0,0,.88.88Z" transform="translate(0 -0.12)"/><path class="a" d="M252.91,96.85a.66.66,0,0,0,0-1.32h0a.66.66,0,1,0,0,1.32Z" transform="translate(0 -0.12)"/><circle class="a" cx="256.87" cy="97.67" r="0.44"/><circle class="a" cx="259.89" cy="99.28" r="0.26"/><path class="a" d="M262,101.16a.12.12,0,0,0,.14-.12h0a.14.14,0,0,0-.14-.14h0a.13.13,0,0,0-.13.13h0a.13.13,0,0,0,.13.13Z" transform="translate(0 -0.12)"/><circle class="a" cx="263.1" cy="102.53" r="0.04"/><path class="a" d="M3.33,108.49a.07.07,0,1,0-.07-.07.07.07,0,0,0,.07.07Z" transform="translate(0 -0.12)"/><circle class="a" cx="6.14" cy="107.12" r="0.2"/><circle class="a" cx="9.9" cy="105.95" r="0.35"/><path class="a" d="M14.6,105.43a.55.55,0,0,0,.54-.56.56.56,0,0,0-.56-.54.55.55,0,0,0-.54.55.54.54,0,0,0,.55.55Z" transform="translate(0 -0.12)"/><path class="a" d="M20.22,104.54a.79.79,0,0,0,0-1.58.79.79,0,0,0,0,1.58Z" transform="translate(0 -0.12)"/><path class="a" d="M26.8,103.63a1,1,0,1,0-1-1A1,1,0,0,0,26.8,103.63Z" transform="translate(0 -0.12)"/><path class="a" d="M34.32,102.76A1.32,1.32,0,1,0,33,101.43a1.32,1.32,0,0,0,1.32,1.33Z" transform="translate(0 -0.12)"/><path class="a" d="M42.78,101.91a1.61,1.61,0,1,0-1.61-1.61h0a1.6,1.6,0,0,0,1.6,1.6Z" transform="translate(0 -0.12)"/><path class="a" d="M52.13,101.12a1.94,1.94,0,1,0-1.93-2v0a1.92,1.92,0,0,0,1.93,1.93Z" transform="translate(0 -0.12)"/><circle class="a" cx="62.49" cy="97.97" r="2.24"/><path class="a" d="M73.75,99.61A2.58,2.58,0,1,0,71.18,97h0a2.57,2.57,0,0,0,2.56,2.58Z" transform="translate(0 -0.12)"/><path class="a" d="M85.92,98.94A2.91,2.91,0,1,0,83,96v0a2.9,2.9,0,0,0,2.9,2.9Z" transform="translate(0 -0.12)"/><path class="a" d="M99,98.34a3.19,3.19,0,1,0-3.18-3.19A3.18,3.18,0,0,0,99,98.34Z" transform="translate(0 -0.12)"/><path class="a" d="M112.84,97.9a3.46,3.46,0,1,0-3.46-3.47,3.45,3.45,0,0,0,3.46,3.47Z" transform="translate(0 -0.12)"/><path class="a" d="M127.3,97.68a3.61,3.61,0,1,0-3.61-3.6,3.61,3.61,0,0,0,3.61,3.6Z" transform="translate(0 -0.12)"/><path class="a" d="M141.93,97.79a3.66,3.66,0,1,0-3.65-3.66h0A3.66,3.66,0,0,0,141.93,97.79Z" transform="translate(0 -0.12)"/><path class="a" d="M156.26,98.2a3.59,3.59,0,1,0-3.59-3.59h0a3.58,3.58,0,0,0,3.58,3.58Z" transform="translate(0 -0.12)"/><path class="a" d="M169.91,98.77a3.39,3.39,0,1,0-3.39-3.38v0A3.38,3.38,0,0,0,169.91,98.77Z" transform="translate(0 -0.12)"/><path class="a" d="M182.72,99.43a3.13,3.13,0,1,0-3.13-3.13h0a3.12,3.12,0,0,0,3.12,3.12Z" transform="translate(0 -0.12)"/><path class="a" d="M194.64,100.16a2.84,2.84,0,1,0-2.84-2.84h0A2.84,2.84,0,0,0,194.64,100.16Z" transform="translate(0 -0.12)"/><path class="a" d="M205.64,100.9a2.51,2.51,0,1,0-2.55-2.47,2.51,2.51,0,0,0,2.55,2.47Z" transform="translate(0 -0.12)"/><circle class="a" cx="215.7" cy="99.37" r="2.18"/><circle class="a" cx="224.83" cy="100.5" r="1.85"/><path class="a" d="M233.08,103.3a1.54,1.54,0,1,0-1.54-1.54h0A1.54,1.54,0,0,0,233.08,103.3Z" transform="translate(0 -0.12)"/><path class="a" d="M240.28,104.17a1.26,1.26,0,0,0,1.27-1.25,1.27,1.27,0,0,0-1.25-1.27A1.26,1.26,0,0,0,239,102.9h0a1.24,1.24,0,0,0,1.24,1.26Z" transform="translate(0 -0.12)"/><path class="a" d="M246.6,105.06a1,1,0,1,0-1-1A1,1,0,0,0,246.6,105.06Z" transform="translate(0 -0.12)"/><path class="a" d="M252,106a.72.72,0,0,0,.74-.72.73.73,0,0,0-.72-.74.74.74,0,0,0-.74.72v0a.72.72,0,0,0,.72.72Z" transform="translate(0 -0.12)"/><path class="a" d="M256.4,106.91a.5.5,0,0,0,.5-.5h0a.5.5,0,0,0-.5-.5.52.52,0,0,0-.51.49h0a.51.51,0,0,0,.51.51Z" transform="translate(0 -0.12)"/><circle class="a" cx="259.89" cy="107.45" r="0.33"/><circle class="a" cx="262.44" cy="108.63" r="0.18"/><circle class="a" cx="264.05" cy="109.8" r="0.04"/><circle class="a" cx="1.33" cy="117.56" r="0.02"/><circle class="a" cx="3.67" cy="116.84" r="0.09"/><path class="a" d="M7,116.49a.25.25,0,0,0,.19-.3A.25.25,0,0,0,7,116a.25.25,0,0,0-.3.19.26.26,0,0,0,.2.3A.17.17,0,0,0,7,116.49Z" transform="translate(0 -0.12)"/><path class="a" d="M11.19,115.93a.4.4,0,1,0-.4-.4.4.4,0,0,0,.4.4Z" transform="translate(0 -0.12)"/><path class="a" d="M16.36,115.43a.61.61,0,0,0,.61-.61h0a.63.63,0,0,0-.7-.54.58.58,0,0,0,.09,1.16Z" transform="translate(0 -0.12)"/><path class="a" d="M22.46,115a.86.86,0,1,0-.86-.86A.86.86,0,0,0,22.46,115Z" transform="translate(0 -0.12)"/><path class="a" d="M29.51,114.51a1.13,1.13,0,0,0,0-2.26,1.14,1.14,0,0,0-1.14,1.12v.06A1.14,1.14,0,0,0,29.51,114.51Z" transform="translate(0 -0.12)"/><path class="a" d="M37.5,114.1a1.43,1.43,0,1,0-1.43-1.43,1.43,1.43,0,0,0,1.43,1.43Z" transform="translate(0 -0.12)"/><circle class="a" cx="46.44" cy="111.84" r="1.74"/><circle class="a" cx="56.32" cy="111.14" r="2.07"/><path class="a" d="M67.12,113a2.42,2.42,0,1,0-2.42-2.42h0A2.42,2.42,0,0,0,67.12,113Z" transform="translate(0 -0.12)"/><path class="a" d="M78.88,112.68a2.8,2.8,0,1,0-2.76-2.84v0A2.79,2.79,0,0,0,78.88,112.68Z" transform="translate(0 -0.12)"/><path class="a" d="M91.57,112.43a3.15,3.15,0,1,0-3.15-3.15,3.15,3.15,0,0,0,3.15,3.15Z" transform="translate(0 -0.12)"/><circle class="a" cx="105.17" cy="108.5" r="3.52"/><path class="a" d="M119.64,112a3.83,3.83,0,1,0-3.83-3.83h0A3.83,3.83,0,0,0,119.64,112Z" transform="translate(0 -0.12)"/><path class="a" d="M134.69,111.89a3.9,3.9,0,1,0-3.89-3.9h0a3.89,3.89,0,0,0,3.88,3.89Z" transform="translate(0 -0.12)"/><path class="a" d="M149.63,112.16a3.9,3.9,0,1,0-3.89-3.91v0A3.89,3.89,0,0,0,149.63,112.16Z" transform="translate(0 -0.12)"/><path class="a" d="M163.87,112.68a3.9,3.9,0,1,0-3.89-3.91v0A3.89,3.89,0,0,0,163.87,112.68Z" transform="translate(0 -0.12)"/><circle class="a" cx="177.22" cy="109.28" r="3.76"/><path class="a" d="M189.65,113.51a3.44,3.44,0,1,0-3.43-3.45v0A3.45,3.45,0,0,0,189.65,113.51Z" transform="translate(0 -0.12)"/><path class="a" d="M201.14,113.84a3.08,3.08,0,1,0-3.08-3.08,3.08,3.08,0,0,0,3.08,3.08Z" transform="translate(0 -0.12)"/><path class="a" d="M211.69,114.16a2.71,2.71,0,1,0-2.7-2.71h0a2.69,2.69,0,0,0,2.69,2.7Z" transform="translate(0 -0.12)"/><path class="a" d="M221.3,114.52a2.36,2.36,0,1,0-2.35-2.37h0A2.36,2.36,0,0,0,221.3,114.52Z" transform="translate(0 -0.12)"/><path class="a" d="M230,114.87a2,2,0,1,0-2-2A2,2,0,0,0,230,114.87Z" transform="translate(0 -0.12)"/><circle class="a" cx="237.71" cy="113.46" r="1.67"/><path class="a" d="M244.5,115.64a1.34,1.34,0,1,0-1.34-1.34h0A1.34,1.34,0,0,0,244.5,115.64Z" transform="translate(0 -0.12)"/><path class="a" d="M250.34,116.07a1.06,1.06,0,1,0-1.05-1.06h0a1,1,0,0,0,1,1.06Z" transform="translate(0 -0.12)"/><path class="a" d="M255.24,116.52a.79.79,0,1,0-.79-.79.79.79,0,0,0,.79.79Z" transform="translate(0 -0.12)"/><path class="a" d="M259.21,117a.58.58,0,0,0,.57-.57.56.56,0,0,0-.57-.57h0a.56.56,0,0,0-.57.55v0a.58.58,0,0,0,.57.57Z" transform="translate(0 -0.12)"/><path class="a" d="M262.23,117.52a.36.36,0,0,0,0-.71.35.35,0,0,0-.29.41A.36.36,0,0,0,262.23,117.52Z" transform="translate(0 -0.12)"/><path class="a" d="M264.31,118.08a.2.2,0,0,0,.24-.15.19.19,0,0,0-.15-.24h-.09a.19.19,0,0,0-.19.19h0a.2.2,0,0,0,.19.19Z" transform="translate(0 -0.12)"/><circle class="a" cx="265.46" cy="118.48" r="0.07"/><circle class="a" cx="0.02" cy="126.5" r="0.02"/><circle class="a" cx="1.9" cy="126.25" r="0.11"/><circle class="a" cx="4.71" cy="126" r="0.26"/><path class="a" d="M8.47,126.31a.44.44,0,0,0,.44-.44.44.44,0,0,0-.44-.44.43.43,0,0,0-.44.44.44.44,0,0,0,.44.44Z" transform="translate(0 -0.12)"/><path class="a" d="M13.14,126.28a.66.66,0,1,0,0-1.32.65.65,0,0,0-.66.66A.67.67,0,0,0,13.14,126.28Z" transform="translate(0 -0.12)"/><path class="a" d="M18.81,126.27a.9.9,0,1,0-.9-.9.9.9,0,0,0,.9.9Z" transform="translate(0 -0.12)"/><path class="a" d="M25.38,126.3a1.19,1.19,0,1,0-1.19-1.19h0a1.18,1.18,0,0,0,1.18,1.18Z" transform="translate(0 -0.12)"/><circle class="a" cx="32.91" cy="124.74" r="1.5"/><circle class="a" cx="41.37" cy="124.49" r="1.83"/><circle class="a" cx="50.78" cy="124.24" r="2.18"/><path class="a" d="M61.12,126.66a2.55,2.55,0,1,0-2.55-2.55,2.55,2.55,0,0,0,2.55,2.55Z" transform="translate(0 -0.12)"/><path class="a" d="M72.41,126.81a3,3,0,1,0-2.94-3.06v.11A3,3,0,0,0,72.41,126.81Z" transform="translate(0 -0.12)"/><path class="a" d="M84.65,127a3.34,3.34,0,1,0-3.35-3.34A3.35,3.35,0,0,0,84.65,127Z" transform="translate(0 -0.12)"/><circle class="a" cx="97.81" cy="123.24" r="3.76"/><path class="a" d="M111.93,127a3.9,3.9,0,1,0-3.9-3.9,3.91,3.91,0,0,0,3.9,3.9Z" transform="translate(0 -0.12)"/><path class="a" d="M127,126.81a3.9,3.9,0,1,0-3.89-3.91v0A3.9,3.9,0,0,0,127,126.81Z" transform="translate(0 -0.12)"/><circle class="a" cx="142.47" cy="122.84" r="3.89"/><path class="a" d="M157.26,127.08a3.9,3.9,0,1,0-3.9-3.9h0a3.89,3.89,0,0,0,3.89,3.89Z" transform="translate(0 -0.12)"/><path class="a" d="M171.1,127.33a3.9,3.9,0,1,0-3.89-3.91h0A3.91,3.91,0,0,0,171.1,127.33Z" transform="translate(0 -0.12)"/><path class="a" d="M184,127.35a3.68,3.68,0,1,0-3.68-3.68h0a3.68,3.68,0,0,0,3.67,3.67Z" transform="translate(0 -0.12)"/><path class="a" d="M196,127.19a3.26,3.26,0,1,0-3.26-3.26h0a3.25,3.25,0,0,0,3.24,3.26Z" transform="translate(0 -0.12)"/><path class="a" d="M207,127a2.86,2.86,0,1,0-2.87-2.86A2.87,2.87,0,0,0,207,127Z" transform="translate(0 -0.12)"/><path class="a" d="M217.08,126.9a2.47,2.47,0,1,0-2.46-2.48h0A2.49,2.49,0,0,0,217.08,126.9Z" transform="translate(0 -0.12)"/><circle class="a" cx="226.24" cy="124.56" r="2.09"/><path class="a" d="M234.44,126.67a1.74,1.74,0,1,0-1.74-1.74h0A1.74,1.74,0,0,0,234.44,126.67Z" transform="translate(0 -0.12)"/><path class="a" d="M241.7,126.62a1.43,1.43,0,1,0-1.43-1.43h0A1.43,1.43,0,0,0,241.7,126.62Z" transform="translate(0 -0.12)"/><path class="a" d="M248,126.56a1.12,1.12,0,1,0-1.12-1.12h0A1.13,1.13,0,0,0,248,126.56Z" transform="translate(0 -0.12)"/><path class="a" d="M253.39,126.53a.84.84,0,1,0-.84-.84A.84.84,0,0,0,253.39,126.53Z" transform="translate(0 -0.12)"/><path class="a" d="M257.83,126.54a.59.59,0,0,0,.59-.59h0a.58.58,0,0,0-.59-.59.59.59,0,0,0-.59.59.6.6,0,0,0,.58.6Z" transform="translate(0 -0.12)"/><path class="a" d="M261.32,126.59a.41.41,0,0,0,.46-.34.39.39,0,0,0-.33-.45h-.13a.39.39,0,0,0-.33.45A.4.4,0,0,0,261.32,126.59Z" transform="translate(0 -0.12)"/><path class="a" d="M263.88,126.67a.23.23,0,0,0,.19-.24.22.22,0,1,0-.24.24Z" transform="translate(0 -0.12)"/><circle class="a" cx="265.49" cy="126.57" r="0.09"/><path class="a" d="M.82,135.42Z" transform="translate(0 -0.12)"/><circle class="a" cx="3.17" cy="135.45" r="0.11"/><circle class="a" cx="6.46" cy="135.67" r="0.26"/><circle class="a" cx="10.68" cy="135.89" r="0.46"/><path class="a" d="M15.85,136.92a.68.68,0,0,0,.7-.68.7.7,0,0,0-.68-.7.69.69,0,0,0-.7.68h0A.68.68,0,0,0,15.85,136.92Z" transform="translate(0 -0.12)"/><path class="a" d="M22,137.42a.93.93,0,0,0,0-1.86.93.93,0,0,0-.93.93h0A.93.93,0,0,0,22,137.42Z" transform="translate(0 -0.12)"/><path class="a" d="M29,137.88a1.21,1.21,0,1,0-1.21-1.21A1.21,1.21,0,0,0,29,137.88Z" transform="translate(0 -0.12)"/><path class="a" d="M37,138.42a1.52,1.52,0,1,0-1.52-1.52A1.52,1.52,0,0,0,37,138.42Z" transform="translate(0 -0.12)"/><path class="a" d="M45.94,139a1.87,1.87,0,1,0-1.87-1.87h0A1.87,1.87,0,0,0,45.94,139Z" transform="translate(0 -0.12)"/><circle class="a" cx="55.82" cy="137.2" r="2.22"/><path class="a" d="M66.63,140.16A2.62,2.62,0,1,0,64,137.53h0A2.61,2.61,0,0,0,66.63,140.16Z" transform="translate(0 -0.12)"/><path class="a" d="M78.4,140.8a3,3,0,1,0-3-3A3,3,0,0,0,78.4,140.8Z" transform="translate(0 -0.12)"/><path class="a" d="M91.12,141.42A3.46,3.46,0,1,0,87.67,138v0A3.44,3.44,0,0,0,91.12,141.42Z" transform="translate(0 -0.12)"/><circle class="a" cx="104.74" cy="138.07" r="3.89"/><path class="a" d="M119.32,142.29a3.9,3.9,0,1,0-3.89-3.91v0A3.89,3.89,0,0,0,119.32,142.29Z" transform="translate(0 -0.12)"/><circle class="a" cx="134.76" cy="138.38" r="3.89"/><circle class="a" cx="150" cy="138.22" r="3.89"/><circle class="a" cx="164.32" cy="138.01" r="3.89"/><path class="a" d="M177.69,141.81a3.9,3.9,0,1,0-3.89-3.91v0A3.9,3.9,0,0,0,177.69,141.81Z" transform="translate(0 -0.12)"/><circle class="a" cx="190.14" cy="137.58" r="3.81"/><path class="a" d="M201.64,140.85a3.37,3.37,0,1,0-3.37-3.37h0A3.37,3.37,0,0,0,201.64,140.85Z" transform="translate(0 -0.12)"/><path class="a" d="M212.18,140.19a2.93,2.93,0,1,0-2.91-2.94h0A2.92,2.92,0,0,0,212.18,140.19Z" transform="translate(0 -0.12)"/><circle class="a" cx="221.8" cy="136.92" r="2.53"/><path class="a" d="M230.47,139a2.16,2.16,0,1,0-2.15-2.17v0A2.15,2.15,0,0,0,230.47,139Z" transform="translate(0 -0.12)"/><circle class="a" cx="238.21" cy="136.48" r="1.78"/><path class="a" d="M245,137.84a1.45,1.45,0,1,0-1.45-1.45h0A1.45,1.45,0,0,0,245,137.84Z" transform="translate(0 -0.12)"/><path class="a" d="M250.84,137.32a1.15,1.15,0,1,0,0-2.3,1.16,1.16,0,0,0-1.15,1.15h0A1.15,1.15,0,0,0,250.84,137.32Z" transform="translate(0 -0.12)"/><path class="a" d="M255.75,136.81a.86.86,0,0,0,0-1.72.87.87,0,0,0-.86.86h0a.85.85,0,0,0,.84.86Z" transform="translate(0 -0.12)"/><path class="a" d="M259.71,136.35a.6.6,0,0,0,.62-.6h0a.62.62,0,1,0-.63.61Z" transform="translate(0 -0.12)"/><path class="a" d="M262.73,135.94a.41.41,0,0,0,.43-.41.42.42,0,0,0-.41-.43.43.43,0,0,0-.43.41h0A.41.41,0,0,0,262.73,135.94Z" transform="translate(0 -0.12)"/><path class="a" d="M264.82,135.52a.22.22,0,0,0,.22-.22.22.22,0,0,0-.44,0,.22.22,0,0,0,.22.22Z" transform="translate(0 -0.12)"/><path class="a" d="M266,135.17a.09.09,0,0,0,0-.18.1.1,0,0,0-.09.1A.09.09,0,0,0,266,135.17Z" transform="translate(0 -0.12)"/><circle class="a" cx="268.54" cy="134.8" r="0.02"/><circle class="a" cx="0.46" cy="143.72" r="0.02"/><circle class="a" cx="2.33" cy="144.4" r="0.11"/><circle class="a" cx="5.15" cy="145.09" r="0.26"/><path class="a" d="M8.9,146.36a.47.47,0,0,0,.48-.46.48.48,0,0,0-.46-.48.47.47,0,0,0-.48.46v0A.47.47,0,0,0,8.9,146.36Z" transform="translate(0 -0.12)"/><path class="a" d="M13.6,147.26a.68.68,0,1,0-.68-.68h0a.66.66,0,0,0,.66.68Z" transform="translate(0 -0.12)"/><path class="a" d="M19.23,148.19a.94.94,0,0,0,1-.83.93.93,0,0,0-.83-1h-.2a.93.93,0,0,0,0,1.85Z" transform="translate(0 -0.12)"/><path class="a" d="M25.82,149.16A1.21,1.21,0,1,0,24.61,148a1.21,1.21,0,0,0,1.21,1.21Z" transform="translate(0 -0.12)"/><path class="a" d="M33.34,150.15a1.52,1.52,0,1,0-1.52-1.52,1.52,1.52,0,0,0,1.52,1.52Z" transform="translate(0 -0.12)"/><circle class="a" cx="41.81" cy="149.18" r="1.87"/><path class="a" d="M51.21,152.2A2.22,2.22,0,1,0,49,150a2.22,2.22,0,0,0,2.22,2.22Z" transform="translate(0 -0.12)"/><path class="a" d="M61.55,153.27a2.62,2.62,0,1,0-2.62-2.62h0A2.62,2.62,0,0,0,61.55,153.27Z" transform="translate(0 -0.12)"/><path class="a" d="M72.84,154.35a3,3,0,1,0-3-3A3,3,0,0,0,72.84,154.35Z" transform="translate(0 -0.12)"/><path class="a" d="M85.06,155.42A3.46,3.46,0,1,0,81.61,152h0A3.46,3.46,0,0,0,85.06,155.42Z" transform="translate(0 -0.12)"/><circle class="a" cx="98.21" cy="152.44" r="3.89"/><circle class="a" cx="112.27" cy="152.98" r="3.89"/><path class="a" d="M127.11,157.34a3.9,3.9,0,1,0-3.9-3.9h0A3.9,3.9,0,0,0,127.11,157.34Z" transform="translate(0 -0.12)"/><path class="a" d="M142.24,157.27a3.89,3.89,0,1,0-3.89-3.89h0A3.89,3.89,0,0,0,142.24,157.27Z" transform="translate(0 -0.12)"/><path class="a" d="M156.89,156.86A3.9,3.9,0,1,0,153,153v0A3.9,3.9,0,0,0,156.89,156.86Z" transform="translate(0 -0.12)"/><path class="a" d="M170.71,156.29a3.89,3.89,0,1,0-3.9-3.89,3.89,3.89,0,0,0,3.9,3.89Z" transform="translate(0 -0.12)"/><path class="a" d="M183.6,155.58a3.81,3.81,0,1,0-3.81-3.81h0a3.8,3.8,0,0,0,3.8,3.8Z" transform="translate(0 -0.12)"/><path class="a" d="M195.56,154.49a3.37,3.37,0,1,0-3.37-3.37h0a3.35,3.35,0,0,0,3.36,3.36Z" transform="translate(0 -0.12)"/><path class="a" d="M206.59,153.42a2.93,2.93,0,1,0-2.93-2.93h0A2.93,2.93,0,0,0,206.59,153.42Z" transform="translate(0 -0.12)"/><path class="a" d="M216.66,152.32a2.53,2.53,0,1,0-2.53-2.53h0A2.53,2.53,0,0,0,216.66,152.32Z" transform="translate(0 -0.12)"/><circle class="a" cx="225.81" cy="148.99" r="2.16"/><circle class="a" cx="234.01" cy="148.31" r="1.78"/><path class="a" d="M241.27,149.21a1.46,1.46,0,1,0-1.45-1.47v0A1.45,1.45,0,0,0,241.27,149.21Z" transform="translate(0 -0.12)"/><path class="a" d="M247.59,148.22a1.15,1.15,0,0,0,1.16-1.14,1.16,1.16,0,0,0-1.14-1.16,1.15,1.15,0,0,0-1.16,1.14h0a1.13,1.13,0,0,0,1.13,1.15Z" transform="translate(0 -0.12)"/><path class="a" d="M253,147.25a.86.86,0,0,0-.06-1.72.86.86,0,0,0,.06,1.72Z" transform="translate(0 -0.12)"/><path class="a" d="M257.39,146.32a.6.6,0,0,0,.62-.6h0a.62.62,0,1,0-1.23,0h0A.61.61,0,0,0,257.39,146.32Z" transform="translate(0 -0.12)"/><circle class="a" cx="260.89" cy="144.9" r="0.42"/><path class="a" d="M263.44,144.55a.22.22,0,0,0,.22-.22h0a.22.22,0,1,0-.22.22Z" transform="translate(0 -0.12)"/><circle class="a" cx="265.05" cy="143.52" r="0.09"/><circle class="a" cx="265.72" cy="142.84" r="0.02"/><path class="a" d="M2.19,152.89Z" transform="translate(0 -0.12)"/><circle class="a" cx="4.54" cy="153.89" r="0.11"/><circle class="a" cx="7.82" cy="155.03" r="0.26"/><path class="a" d="M12.05,156.73a.44.44,0,0,0,.44-.44h0a.44.44,0,0,0-.44-.44.44.44,0,0,0,0,.88Z" transform="translate(0 -0.12)"/><circle class="a" cx="17.22" cy="157.3" r="0.66"/><path class="a" d="M23.31,159.42a.91.91,0,1,0-.9-.92v0A.92.92,0,0,0,23.31,159.42Z" transform="translate(0 -0.12)"/><path class="a" d="M30.36,160.87a1.19,1.19,0,1,0-1.23-1.19,1.19,1.19,0,0,0,1.23,1.19Z" transform="translate(0 -0.12)"/><path class="a" d="M38.35,162.29a1.5,1.5,0,1,0-1.49-1.51h0A1.51,1.51,0,0,0,38.35,162.29Z" transform="translate(0 -0.12)"/><path class="a" d="M47.28,163.72a1.83,1.83,0,1,0-1.83-1.83,1.83,1.83,0,0,0,1.83,1.83Z" transform="translate(0 -0.12)"/><circle class="a" cx="57.14" cy="162.85" r="2.18"/><path class="a" d="M67.93,166.58A2.56,2.56,0,1,0,65.38,164v0a2.55,2.55,0,0,0,2.55,2.55Z" transform="translate(0 -0.12)"/><path class="a" d="M79.65,168a3,3,0,1,0-2.94-3v0A3,3,0,0,0,79.65,168Z" transform="translate(0 -0.12)"/><path class="a" d="M92.28,169.31A3.34,3.34,0,1,0,88.94,166h0A3.34,3.34,0,0,0,92.28,169.31Z" transform="translate(0 -0.12)"/><circle class="a" cx="105.76" cy="166.64" r="3.76"/><path class="a" d="M120,171.21a3.9,3.9,0,1,0-3.89-3.9h0A3.89,3.89,0,0,0,120,171.21Z" transform="translate(0 -0.12)"/><path class="a" d="M134.62,171.41a3.9,3.9,0,1,0-3.88-3.9v0A3.88,3.88,0,0,0,134.62,171.41Z" transform="translate(0 -0.12)"/><circle class="a" cx="149.2" cy="167.08" r="3.89"/><path class="a" d="M163.24,170.42a3.9,3.9,0,1,0-3.9-3.9h0A3.9,3.9,0,0,0,163.24,170.42Z" transform="translate(0 -0.12)"/><path class="a" d="M176.48,169.61a3.9,3.9,0,1,0-3.88-3.91s0,0,0,0A3.89,3.89,0,0,0,176.48,169.61Z" transform="translate(0 -0.12)"/><circle class="a" cx="188.86" cy="164.64" r="3.67"/><path class="a" d="M200.33,167a3.26,3.26,0,1,0-3.26-3.26h0a3.25,3.25,0,0,0,3.25,3.25Z" transform="translate(0 -0.12)"/><circle class="a" cx="210.87" cy="162.55" r="2.86"/><circle class="a" cx="220.46" cy="161.46" r="2.46"/><circle class="a" cx="229.13" cy="160.36" r="2.09"/><path class="a" d="M236.85,161.1a1.74,1.74,0,1,0-1.77-1.71v0A1.74,1.74,0,0,0,236.85,161.1Z" transform="translate(0 -0.12)"/><path class="a" d="M243.64,159.67a1.43,1.43,0,1,0-1.43-1.43h0A1.43,1.43,0,0,0,243.64,159.67Z" transform="translate(0 -0.12)"/><path class="a" d="M249.48,158.23a1.12,1.12,0,1,0-1.12-1.12,1.12,1.12,0,0,0,1.12,1.12Z" transform="translate(0 -0.12)"/><path class="a" d="M254.38,156.81a.84.84,0,1,0-.84-.84h0A.85.85,0,0,0,254.38,156.81Z" transform="translate(0 -0.12)"/><path class="a" d="M258.34,155.42a.6.6,0,0,0,.61-.59.6.6,0,0,0-.59-.61.6.6,0,0,0-.61.59v0A.61.61,0,0,0,258.34,155.42Z" transform="translate(0 -0.12)"/><path class="a" d="M261.37,154.09a.4.4,0,0,0,.39-.4.4.4,0,0,0-.79,0A.4.4,0,0,0,261.37,154.09Z" transform="translate(0 -0.12)"/><path class="a" d="M263.45,152.77a.22.22,0,1,0-.22-.22.22.22,0,0,0,.22.22Z" transform="translate(0 -0.12)"/><path class="a" d="M264.59,151.49a.09.09,0,0,0,.08-.09.08.08,0,0,0-.08-.08s-.08,0-.09.07h0A.09.09,0,0,0,264.59,151.49Z" transform="translate(0 -0.12)"/><circle class="a" cx="2.75" cy="160.41" r="0.02"/><path class="a" d="M4.61,162.21a.09.09,0,1,0-.09-.09A.09.09,0,0,0,4.61,162.21Z" transform="translate(0 -0.12)"/><path class="a" d="M7.42,163.94a.25.25,0,0,0,.25-.23h0a.25.25,0,0,0-.3-.2.22.22,0,0,0,0,.44Z" transform="translate(0 -0.12)"/><circle class="a" cx="11.17" cy="165.15" r="0.4"/><path class="a" d="M15.86,167.42a.62.62,0,0,0,.62-.62.61.61,0,0,0-.61-.61h0a.61.61,0,0,0-.61.61h0a.61.61,0,0,0,.6.62Z" transform="translate(0 -0.12)"/><path class="a" d="M21.48,169.26a.86.86,0,1,0-.86-.86.86.86,0,0,0,.86.86Z" transform="translate(0 -0.12)"/><path class="a" d="M28.05,171.05a1.12,1.12,0,1,0-1.12-1.11h0A1.12,1.12,0,0,0,28.05,171.05Z" transform="translate(0 -0.12)"/><path class="a" d="M35.55,172.88a1.43,1.43,0,1,0-1.42-1.47,1.43,1.43,0,0,0,1.42,1.47Z" transform="translate(0 -0.12)"/><path class="a" d="M44,174.68a1.74,1.74,0,1,0-1.74-1.74A1.73,1.73,0,0,0,44,174.68Z" transform="translate(0 -0.12)"/><circle class="a" cx="53.36" cy="174.27" r="2.07"/><path class="a" d="M63.63,178.22a2.42,2.42,0,1,0-2.42-2.42h0A2.42,2.42,0,0,0,63.63,178.22Z" transform="translate(0 -0.12)"/><path class="a" d="M74.83,179.92a2.8,2.8,0,1,0-2.8-2.8h0a2.79,2.79,0,0,0,2.79,2.79Z" transform="translate(0 -0.12)"/><path class="a" d="M86.9,181.48a3.15,3.15,0,1,0-3.15-3.15h0A3.14,3.14,0,0,0,86.9,181.48Z" transform="translate(0 -0.12)"/><path class="a" d="M99.78,182.89a3.52,3.52,0,1,0-3.52-3.52,3.51,3.51,0,0,0,3.52,3.52Z" transform="translate(0 -0.12)"/><circle class="a" cx="113.38" cy="180.01" r="3.83"/><path class="a" d="M127.45,184.41a3.9,3.9,0,1,0-3.89-3.91v0A3.89,3.89,0,0,0,127.45,184.41Z" transform="translate(0 -0.12)"/><path class="a" d="M141.66,184.41a3.9,3.9,0,1,0-3.89-3.91h0A3.9,3.9,0,0,0,141.66,184.41Z" transform="translate(0 -0.12)"/><circle class="a" cx="155.63" cy="179.83" r="3.89"/><path class="a" d="M169.1,182.87a3.77,3.77,0,1,0-3.77-3.77,3.76,3.76,0,0,0,3.77,3.77Z" transform="translate(0 -0.12)"/><path class="a" d="M181.71,181.41a3.44,3.44,0,1,0-3.43-3.45h0A3.44,3.44,0,0,0,181.71,181.41Z" transform="translate(0 -0.12)"/><path class="a" d="M193.54,179.85a3.09,3.09,0,1,0-3.08-3.1h0a3.07,3.07,0,0,0,3.07,3.09Z" transform="translate(0 -0.12)"/><path class="a" d="M204.48,178.12a2.71,2.71,0,1,0-2.7-2.72h0A2.7,2.7,0,0,0,204.48,178.12Z" transform="translate(0 -0.12)"/><path class="a" d="M214.5,176.35a2.36,2.36,0,1,0,0-4.72,2.37,2.37,0,0,0-2.37,2.35h0A2.36,2.36,0,0,0,214.5,176.35Z" transform="translate(0 -0.12)"/><path class="a" d="M223.61,174.53a2,2,0,1,0-2-2A2,2,0,0,0,223.61,174.53Z" transform="translate(0 -0.12)"/><circle class="a" cx="231.79" cy="170.91" r="1.67"/><path class="a" d="M239.08,170.84a1.34,1.34,0,1,0-1.34-1.33h0A1.33,1.33,0,0,0,239.08,170.84Z" transform="translate(0 -0.12)"/><path class="a" d="M245.34,169a1.06,1.06,0,1,0-1.07-1.06s0,0,0,.06a1,1,0,0,0,1,1Z" transform="translate(0 -0.12)"/><path class="a" d="M250.69,167.2a.79.79,0,1,0-.79-.79A.79.79,0,0,0,250.69,167.2Z" transform="translate(0 -0.12)"/><path class="a" d="M255.12,165.42a.57.57,0,0,0,.57-.57h0a.55.55,0,0,0-.55-.57h0a.57.57,0,0,0-.57.57h0A.59.59,0,0,0,255.12,165.42Z" transform="translate(0 -0.12)"/><path class="a" d="M258.61,163.61a.35.35,0,0,0,.35-.35h0a.34.34,0,0,0-.35-.35h0a.35.35,0,0,0-.35.35h0a.35.35,0,0,0,.33.35Z" transform="translate(0 -0.12)"/><circle class="a" cx="261.16" cy="161.55" r="0.2"/><circle class="a" cx="262.76" cy="159.96" r="0.07"/><circle class="a" cx="7.7" cy="171.35" r="0.07"/><circle class="a" cx="10.97" cy="173.34" r="0.2"/><circle class="a" cx="15.17" cy="175.31" r="0.35"/><circle class="a" cx="20.3" cy="177.27" r="0.55"/><path class="a" d="M26.38,180.12a.8.8,0,0,0,0-1.6.81.81,0,0,0-.81.79h0a.79.79,0,0,0,.78.8Z" transform="translate(0 -0.12)"/><path class="a" d="M33.39,182.26a1,1,0,1,0-1-1A1,1,0,0,0,33.39,182.26Z" transform="translate(0 -0.12)"/><path class="a" d="M41.32,184.41A1.32,1.32,0,1,0,40,183.09,1.32,1.32,0,0,0,41.32,184.41Z" transform="translate(0 -0.12)"/><path class="a" d="M50.13,186.48a1.61,1.61,0,1,0-1.6-1.62h0A1.6,1.6,0,0,0,50.13,186.48Z" transform="translate(0 -0.12)"/><path class="a" d="M59.92,188.53A1.94,1.94,0,1,0,58,186.59a1.94,1.94,0,0,0,1.94,1.94Z" transform="translate(0 -0.12)"/><circle class="a" cx="70.56" cy="188.08" r="2.24"/><path class="a" d="M82.06,192.25a2.58,2.58,0,1,0-2.58-2.58,2.59,2.59,0,0,0,2.58,2.58Z" transform="translate(0 -0.12)"/><path class="a" d="M94.34,193.84a2.91,2.91,0,1,0-2.9-2.92h0a2.9,2.9,0,0,0,2.89,2.91Z" transform="translate(0 -0.12)"/><path class="a" d="M107.29,195.1a3.19,3.19,0,1,0-3.18-3.2h0A3.19,3.19,0,0,0,107.29,195.1Z" transform="translate(0 -0.12)"/><path class="a" d="M120.77,196a3.46,3.46,0,1,0-3.46-3.46,3.46,3.46,0,0,0,3.46,3.46Z" transform="translate(0 -0.12)"/><path class="a" d="M134.49,196.3a3.61,3.61,0,1,0-3.6-3.61,3.61,3.61,0,0,0,3.6,3.61Z" transform="translate(0 -0.12)"/><path class="a" d="M148.18,196.05a3.66,3.66,0,1,0-3.65-3.67h0A3.66,3.66,0,0,0,148.18,196.05Z" transform="translate(0 -0.12)"/><path class="a" d="M161.54,195.26a3.59,3.59,0,1,0-3.59-3.59h0a3.58,3.58,0,0,0,3.57,3.59Z" transform="translate(0 -0.12)"/><path class="a" d="M174.32,194a3.39,3.39,0,1,0-3.38-3.39h0a3.37,3.37,0,0,0,3.37,3.38Z" transform="translate(0 -0.12)"/><path class="a" d="M186.39,192.41a3.13,3.13,0,1,0-3.13-3.13,3.13,3.13,0,0,0,3.13,3.13Z" transform="translate(0 -0.12)"/><path class="a" d="M197.65,190.61a2.84,2.84,0,1,0-2.84-2.84h0A2.84,2.84,0,0,0,197.65,190.61Z" transform="translate(0 -0.12)"/><path class="a" d="M208.09,188.63a2.51,2.51,0,1,0-2.51-2.51h0A2.51,2.51,0,0,0,208.09,188.63Z" transform="translate(0 -0.12)"/><circle class="a" cx="217.55" cy="184.25" r="2.18"/><circle class="a" cx="226.14" cy="182.44" r="1.85"/><path class="a" d="M233.82,182.24a1.54,1.54,0,1,0-1.54-1.54h0A1.54,1.54,0,0,0,233.82,182.24Z" transform="translate(0 -0.12)"/><path class="a" d="M240.56,180a1.26,1.26,0,0,0,1.27-1.25,1.27,1.27,0,0,0-1.25-1.27,1.26,1.26,0,0,0-1.27,1.25v0A1.25,1.25,0,0,0,240.56,180Z" transform="translate(0 -0.12)"/><path class="a" d="M246.38,177.84a1,1,0,1,0-1-1A1,1,0,0,0,246.38,177.84Z" transform="translate(0 -0.12)"/><path class="a" d="M251.25,175.61a.73.73,0,1,0,0-1.45h0a.74.74,0,0,0-.72.73.72.72,0,0,0,.72.72Z" transform="translate(0 -0.12)"/><path class="a" d="M255.2,173.41a.5.5,0,0,0,.5-.5h0a.5.5,0,0,0-.5-.5.52.52,0,0,0-.51.49h0a.51.51,0,0,0,.51.51Z" transform="translate(0 -0.12)"/><circle class="a" cx="258.2" cy="170.79" r="0.33"/><path class="a" d="M260.27,169.08a.18.18,0,0,0,.18-.17.18.18,0,0,0-.18-.18.17.17,0,0,0-.17.17h0a.18.18,0,0,0,.17.17Z" transform="translate(0 -0.12)"/><path class="a" d="M261.4,166.93Z" transform="translate(0 -0.12)"/><circle class="a" cx="8.62" cy="178.29" r="0.04"/><path class="a" d="M11.4,181a.16.16,0,0,0,.16-.15.16.16,0,0,0-.16-.16h0a.16.16,0,0,0-.15.16A.14.14,0,0,0,11.4,181Z" transform="translate(0 -0.12)"/><circle class="a" cx="15.12" cy="183.05" r="0.31"/><path class="a" d="M19.76,186a.47.47,0,0,0,.47-.49.48.48,0,0,0-.49-.47.49.49,0,0,0-.47.48.48.48,0,0,0,.48.48Z" transform="translate(0 -0.12)"/><circle class="a" cx="25.33" cy="187.68" r="0.7"/><path class="a" d="M31.83,191a1,1,0,1,0-1-1v.05A1,1,0,0,0,31.83,191Z" transform="translate(0 -0.12)"/><path class="a" d="M39.25,193.41a1.19,1.19,0,1,0-1.19-1.19,1.19,1.19,0,0,0,1.19,1.19Z" transform="translate(0 -0.12)"/><path class="a" d="M47.57,195.83a1.47,1.47,0,0,0,.06-2.94,1.46,1.46,0,0,0-1.5,1.44v.08A1.47,1.47,0,0,0,47.57,195.83Z" transform="translate(0 -0.12)"/><circle class="a" cx="56.78" cy="196.25" r="1.76"/><circle class="a" cx="66.85" cy="198.13" r="2.05"/><circle class="a" cx="77.75" cy="199.84" r="2.33"/><circle class="a" cx="89.42" cy="201.32" r="2.6"/><path class="a" d="M101.74,205.47a2.84,2.84,0,1,0-2.84-2.84h0A2.85,2.85,0,0,0,101.74,205.47Z" transform="translate(0 -0.12)"/><path class="a" d="M114.6,206.5a3,3,0,1,0-3-3A3,3,0,0,0,114.6,206.5Z" transform="translate(0 -0.12)"/><path class="a" d="M127.79,207a3.17,3.17,0,1,0-3.17-3.17h0A3.17,3.17,0,0,0,127.79,207Z" transform="translate(0 -0.12)"/><path class="a" d="M141.1,207a3.21,3.21,0,1,0-3.21-3.21A3.21,3.21,0,0,0,141.1,207Z" transform="translate(0 -0.12)"/><path class="a" d="M154.19,206.41a3.15,3.15,0,1,0-3.15-3.15h0A3.15,3.15,0,0,0,154.19,206.41Z" transform="translate(0 -0.12)"/><path class="a" d="M166.92,205.35a3,3,0,1,0-3-3A3,3,0,0,0,166.92,205.35Z" transform="translate(0 -0.12)"/><path class="a" d="M179.09,203.85a2.8,2.8,0,1,0-2.8-2.8,2.8,2.8,0,0,0,2.8,2.8Z" transform="translate(0 -0.12)"/><path class="a" d="M190.53,202.06a2.56,2.56,0,1,0-2.55-2.57h0A2.56,2.56,0,0,0,190.53,202.06Z" transform="translate(0 -0.12)"/><path class="a" d="M201.2,200a2.27,2.27,0,0,0,0-4.54,2.26,2.26,0,0,0-2.28,2.26h0A2.27,2.27,0,0,0,201.2,200Z" transform="translate(0 -0.12)"/><path class="a" d="M211.08,197.8a2,2,0,1,0-2-2A2,2,0,0,0,211.08,197.8Z" transform="translate(0 -0.12)"/><path class="a" d="M220,195.47a1.69,1.69,0,1,0-1.7-1.69,1.69,1.69,0,0,0,1.7,1.69Z" transform="translate(0 -0.12)"/><path class="a" d="M228.08,193.05a1.41,1.41,0,1,0-1.41-1.41,1.41,1.41,0,0,0,1.41,1.41Z" transform="translate(0 -0.12)"/><path class="a" d="M235.23,190.58a1.15,1.15,0,1,0-1.15-1.17,1.14,1.14,0,0,0,1.11,1.17Z" transform="translate(0 -0.12)"/><path class="a" d="M241.47,188.05a.88.88,0,1,0-.88-.88A.87.87,0,0,0,241.47,188.05Z" transform="translate(0 -0.12)"/><path class="a" d="M246.79,185.52a.66.66,0,1,0-.66-.66.66.66,0,0,0,.66.66Z" transform="translate(0 -0.12)"/><path class="a" d="M251.17,183a.44.44,0,1,0,0-.88.44.44,0,0,0-.44.44h0a.43.43,0,0,0,.43.43Z" transform="translate(0 -0.12)"/><circle class="a" cx="254.62" cy="180.01" r="0.26"/><circle class="a" cx="257.14" cy="177.61" r="0.13"/><circle class="a" cx="258.73" cy="175.19" r="0.04"/><circle class="a" cx="12.47" cy="187.14" r="0.02"/><circle class="a" cx="15.69" cy="189.88" r="0.11"/><path class="a" d="M19.82,192.94a.24.24,0,1,0,0-.48.24.24,0,0,0-.24.24A.26.26,0,0,0,19.82,192.94Z" transform="translate(0 -0.12)"/><path class="a" d="M24.89,195.76a.42.42,0,0,0,0-.84.42.42,0,0,0-.42.42h0A.42.42,0,0,0,24.89,195.76Z" transform="translate(0 -0.12)"/><path class="a" d="M30.87,198.52a.6.6,0,1,0-.15,0Z" transform="translate(0 -0.12)"/><path class="a" d="M37.75,201.25a.82.82,0,0,0,.82-.82h0a.82.82,0,0,0-.82-.81.81.81,0,0,0-.81.81A.82.82,0,0,0,37.75,201.25Z" transform="translate(0 -0.12)"/><path class="a" d="M45.53,203.89a1.06,1.06,0,1,0,0-2.12,1.05,1.05,0,0,0-1.05,1.06v.06A1.06,1.06,0,0,0,45.53,203.89Z" transform="translate(0 -0.12)"/><path class="a" d="M54.18,206.41a1.3,1.3,0,1,0-1.3-1.3,1.31,1.31,0,0,0,1.3,1.3Z" transform="translate(0 -0.12)"/><path class="a" d="M63.67,208.82a1.56,1.56,0,1,0-1.55-1.57h0A1.57,1.57,0,0,0,63.67,208.82Z" transform="translate(0 -0.12)"/><circle class="a" cx="73.97" cy="209.07" r="1.8"/><circle class="a" cx="85.02" cy="210.77" r="2.07"/><circle class="a" cx="96.71" cy="212.17" r="2.29"/><path class="a" d="M109,215.84a2.51,2.51,0,1,0-2.51-2.51h0A2.51,2.51,0,0,0,109,215.84Z" transform="translate(0 -0.12)"/><path class="a" d="M121.57,216.62a2.67,2.67,0,1,0-2.66-2.68v0a2.66,2.66,0,0,0,2.66,2.66Z" transform="translate(0 -0.12)"/><circle class="a" cx="134.36" cy="214" r="2.75"/><path class="a" d="M147.1,216.62a2.8,2.8,0,1,0-2.79-2.81v0A2.79,2.79,0,0,0,147.1,216.62Z" transform="translate(0 -0.12)"/><path class="a" d="M159.67,215.83a2.75,2.75,0,1,0-2.76-2.75,2.75,2.75,0,0,0,2.76,2.75Z" transform="translate(0 -0.12)"/><path class="a" d="M171.77,214.55a2.62,2.62,0,1,0-2.62-2.62h0A2.62,2.62,0,0,0,171.77,214.55Z" transform="translate(0 -0.12)"/><circle class="a" cx="183.29" cy="210.33" r="2.46"/><circle class="a" cx="194.14" cy="208.55" r="2.24"/><circle class="a" cx="204.22" cy="206.55" r="2"/><circle class="a" cx="213.47" cy="204.38" r="1.76"/><path class="a" d="M221.88,203.67a1.5,1.5,0,1,0-1.49-1.51v0A1.51,1.51,0,0,0,221.88,203.67Z" transform="translate(0 -0.12)"/><path class="a" d="M229.41,201a1.23,1.23,0,1,0-1.23-1.23h0A1.25,1.25,0,0,0,229.41,201Z" transform="translate(0 -0.12)"/><path class="a" d="M236.08,198.2a1,1,0,1,0-1-1A1,1,0,0,0,236.08,198.2Z" transform="translate(0 -0.12)"/><path class="a" d="M241.77,195.41a.77.77,0,0,0,0-1.54.77.77,0,0,0,0,1.54Z" transform="translate(0 -0.12)"/><circle class="a" cx="246.58" cy="191.83" r="0.55"/><path class="a" d="M250.45,189.62a.38.38,0,1,0,.13-.75h-.13a.38.38,0,0,0,0,.75Z" transform="translate(0 -0.12)"/><path class="a" d="M253.41,186.71a.22.22,0,0,0,0-.44.22.22,0,0,0,0,.44Z" transform="translate(0 -0.12)"/><path class="a" d="M255.44,183.79a.08.08,0,0,0,.09-.08.09.09,0,0,0-.18,0A.09.09,0,0,0,255.44,183.79Z" transform="translate(0 -0.12)"/><circle class="a" cx="260.61" cy="182.4" r="0.02"/><circle class="a" cx="16.87" cy="195.77" r="0.07"/><path class="a" d="M20.49,199.11a.18.18,0,0,0,.18-.18.17.17,0,0,0-.18-.17.18.18,0,0,0-.17.17A.19.19,0,0,0,20.49,199.11Z" transform="translate(0 -0.12)"/><path class="a" d="M25,202.24a.33.33,0,0,0,.33-.33h0a.32.32,0,0,0-.33-.33h0a.32.32,0,0,0-.33.31v0a.33.33,0,0,0,.33.33Z" transform="translate(0 -0.12)"/><circle class="a" cx="30.49" cy="204.68" r="0.51"/><path class="a" d="M36.83,208.29a.7.7,0,0,0,.7-.68.69.69,0,1,0-1.38,0v0A.7.7,0,0,0,36.83,208.29Z" transform="translate(0 -0.12)"/><path class="a" d="M44.05,211.19a.91.91,0,1,0-.9-.92h0a.89.89,0,0,0,.89.91Z" transform="translate(0 -0.12)"/><path class="a" d="M52.13,214A1.12,1.12,0,1,0,51,212.83h0A1.12,1.12,0,0,0,52.13,214Z" transform="translate(0 -0.12)"/><path class="a" d="M61,216.55a1.35,1.35,0,0,0,0-2.69,1.35,1.35,0,1,0-.23,2.69Z" transform="translate(0 -0.12)"/><path class="a" d="M70.72,218.94a1.56,1.56,0,0,0,1.54-1.6,1.57,1.57,0,1,0-3.14.06,1.56,1.56,0,0,0,1.58,1.54Z" transform="translate(0 -0.12)"/><circle class="a" cx="81.14" cy="219.17" r="1.78"/><circle class="a" cx="92.22" cy="220.78" r="1.98"/><circle class="a" cx="103.83" cy="222.04" r="2.16"/><circle class="a" cx="115.85" cy="222.88" r="2.29"/><path class="a" d="M128.11,225.76a2.35,2.35,0,1,0-2.35-2.35,2.35,2.35,0,0,0,2.35,2.35Z" transform="translate(0 -0.12)"/><circle class="a" cx="140.47" cy="223.22" r="2.4"/><path class="a" d="M152.69,225.17a2.36,2.36,0,1,0-2.35-2.37v0a2.35,2.35,0,0,0,2.35,2.35Z" transform="translate(0 -0.12)"/><circle class="a" cx="164.62" cy="221.72" r="2.27"/><path class="a" d="M176.09,222.6a2.11,2.11,0,1,0-2.12-2.11A2.13,2.13,0,0,0,176.09,222.6Z" transform="translate(0 -0.12)"/><circle class="a" cx="186.99" cy="218.66" r="1.94"/><path class="a" d="M197.21,218.53a1.74,1.74,0,1,0-1.73-1.75h0A1.73,1.73,0,0,0,197.21,218.53Z" transform="translate(0 -0.12)"/><circle class="a" cx="206.7" cy="214.44" r="1.52"/><path class="a" d="M215.36,213.4a1.3,1.3,0,1,0,0-2.6,1.32,1.32,0,0,0-1.31,1.29h0A1.3,1.3,0,0,0,215.36,213.4Z" transform="translate(0 -0.12)"/><path class="a" d="M223.21,210.62a1.08,1.08,0,1,0-1.08-1.08h0A1.08,1.08,0,0,0,223.21,210.62Z" transform="translate(0 -0.12)"/><path class="a" d="M230.19,207.69a.86.86,0,1,0-.86-.86.86.86,0,0,0,.84.86Z" transform="translate(0 -0.12)"/><path class="a" d="M236.28,204.64a.64.64,0,0,0,.64-.64.64.64,0,1,0-1.28,0h0A.64.64,0,0,0,236.28,204.64Z" transform="translate(0 -0.12)"/><circle class="a" cx="241.48" cy="200.96" r="0.46"/><circle class="a" cx="245.77" cy="197.97" r="0.29"/><circle class="a" cx="249.14" cy="194.91" r="0.15"/><path class="a" d="M251.58,192Z" transform="translate(0 -0.12)"/><path class="a" d="M21.75,204.21Z" transform="translate(0 -0.12)"/><circle class="a" cx="25.76" cy="207.35" r="0.11"/><path class="a" d="M30.67,210.91a.24.24,0,0,0,.26-.24.24.24,0,0,0-.24-.25.25.25,0,0,0-.26.23h0A.25.25,0,0,0,30.67,210.91Z" transform="translate(0 -0.12)"/><circle class="a" cx="36.46" cy="213.62" r="0.4"/><circle class="a" cx="43.12" cy="216.58" r="0.55"/><path class="a" d="M50.62,220.25a.75.75,0,1,0-.75-.75h0A.75.75,0,0,0,50.62,220.25Z" transform="translate(0 -0.12)"/><path class="a" d="M58.92,223a.92.92,0,1,0,0-1.84.92.92,0,0,0,0,1.84Z" transform="translate(0 -0.12)"/><path class="a" d="M68,225.63a1.12,1.12,0,1,0-1.12-1.12h0A1.12,1.12,0,0,0,68,225.63Z" transform="translate(0 -0.12)"/><path class="a" d="M77.8,228a1.32,1.32,0,1,0-1.32-1.32A1.32,1.32,0,0,0,77.8,228Z" transform="translate(0 -0.12)"/><path class="a" d="M88.24,230a1.52,1.52,0,1,0-1.52-1.52h0A1.51,1.51,0,0,0,88.24,230Z" transform="translate(0 -0.12)"/><circle class="a" cx="99.22" cy="229.81" r="1.67"/><path class="a" d="M110.65,232.83a1.83,1.83,0,1,0-1.83-1.83,1.83,1.83,0,0,0,1.83,1.83Z" transform="translate(0 -0.12)"/><circle class="a" cx="122.38" cy="231.51" r="1.94"/><circle class="a" cx="134.24" cy="231.68" r="2"/><path class="a" d="M146.1,233.51a2,2,0,1,0-2-2A2,2,0,0,0,146.1,233.51Z" transform="translate(0 -0.12)"/><circle class="a" cx="157.73" cy="230.62" r="1.98"/><circle class="a" cx="169.05" cy="229.44" r="1.91"/><path class="a" d="M179.89,229.77a1.78,1.78,0,1,0-1.78-1.78h0A1.78,1.78,0,0,0,179.89,229.77Z" transform="translate(0 -0.12)"/><path class="a" d="M190.16,227.73a1.65,1.65,0,1,0-1.65-1.65h0A1.65,1.65,0,0,0,190.16,227.73Z" transform="translate(0 -0.12)"/><circle class="a" cx="199.76" cy="223.74" r="1.47"/><path class="a" d="M208.63,222.69a1.28,1.28,0,0,0,1.29-1.27,1.3,1.3,0,0,0-1.27-1.29,1.28,1.28,0,0,0-1.29,1.27h0A1.27,1.27,0,0,0,208.63,222.69Z" transform="translate(0 -0.12)"/><path class="a" d="M216.71,219.82a1.07,1.07,0,0,0,1.09-1.07,1.08,1.08,0,0,0-1.07-1.09,1.1,1.1,0,0,0-1.09,1.07h0A1.08,1.08,0,0,0,216.71,219.82Z" transform="translate(0 -0.12)"/><path class="a" d="M224,216.77a.88.88,0,0,0,0-1.76.89.89,0,0,0-.88.88.87.87,0,0,0,.86.88Z" transform="translate(0 -0.12)"/><circle class="a" cx="230.4" cy="212.78" r="0.7"/><path class="a" d="M235.94,210.29a.51.51,0,1,0,0-1h0a.5.5,0,0,0-.5.5.49.49,0,0,0,.49.51Z" transform="translate(0 -0.12)"/><circle class="a" cx="240.6" cy="206.44" r="0.35"/><path class="a" d="M244.36,203.48a.22.22,0,0,0,0-.44.22.22,0,0,0,0,.44Z" transform="translate(0 -0.12)"/><circle class="a" cx="247.22" cy="199.75" r="0.09"/><circle class="a" cx="252.67" cy="198.27" r="0.02"/><circle class="a" cx="27.06" cy="211.91" r="0.07"/><circle class="a" cx="31.42" cy="215.39" r="0.15"/><path class="a" d="M36.65,219.16a.29.29,0,0,0,0-.57.29.29,0,1,0-.11.57Z" transform="translate(0 -0.12)"/><path class="a" d="M42.73,222.51a.42.42,0,1,0-.42-.42h0A.42.42,0,0,0,42.73,222.51Z" transform="translate(0 -0.12)"/><path class="a" d="M49.64,225.71a.58.58,0,0,0,.5-.65.59.59,0,0,0-.5-.5.58.58,0,0,0,0,1.15Z" transform="translate(0 -0.12)"/><path class="a" d="M57.35,228.73a.75.75,0,1,0-.75-.75A.76.76,0,0,0,57.35,228.73Z" transform="translate(0 -0.12)"/><path class="a" d="M65.81,231.52a.93.93,0,1,0-.19,0Z" transform="translate(0 -0.12)"/><path class="a" d="M75,234a1.08,1.08,0,1,0-1.08-1.08A1.08,1.08,0,0,0,75,234Z" transform="translate(0 -0.12)"/><path class="a" d="M84.79,236.21A1.25,1.25,0,0,0,86,235a1.24,1.24,0,0,0-1.23-1.25A1.23,1.23,0,0,0,83.56,235h0A1.24,1.24,0,0,0,84.79,236.21Z" transform="translate(0 -0.12)"/><path class="a" d="M95.12,238a1.39,1.39,0,1,0-1.39-1.39h0A1.38,1.38,0,0,0,95.11,238Z" transform="translate(0 -0.12)"/><path class="a" d="M106,239.4a1.5,1.5,0,1,0-1.49-1.51h0A1.51,1.51,0,0,0,106,239.4Z" transform="translate(0 -0.12)"/><circle class="a" cx="117.12" cy="238.68" r="1.58"/><path class="a" d="M128.47,240.86a1.66,1.66,0,1,0,0-3.32,1.65,1.65,0,0,0-1.67,1.65v0A1.65,1.65,0,0,0,128.47,240.86Z" transform="translate(0 -0.12)"/><circle class="a" cx="139.87" cy="239.02" r="1.65"/><circle class="a" cx="151.18" cy="238.48" r="1.63"/><path class="a" d="M162.25,239.19a1.57,1.57,0,1,0-1.57-1.57h0a1.56,1.56,0,0,0,1.56,1.56Z" transform="translate(0 -0.12)"/><path class="a" d="M172.94,237.7a1.48,1.48,0,1,0-1.46-1.49h0A1.48,1.48,0,0,0,172.94,237.7Z" transform="translate(0 -0.12)"/><path class="a" d="M183.16,235.8a1.36,1.36,0,1,0-1.36-1.36A1.36,1.36,0,0,0,183.16,235.8Z" transform="translate(0 -0.12)"/><path class="a" d="M192.8,233.53a1.21,1.21,0,1,0-1.21-1.21,1.21,1.21,0,0,0,1.21,1.21Z" transform="translate(0 -0.12)"/><path class="a" d="M201.78,231a1.06,1.06,0,0,0,.2-2.11h-.2a1.06,1.06,0,0,0,0,2.11Z" transform="translate(0 -0.12)"/><path class="a" d="M210.09,228.09a.88.88,0,1,0-.88-.88.87.87,0,0,0,.88.88Z" transform="translate(0 -0.12)"/><path class="a" d="M217.52,225a.71.71,0,0,0,.71-.71h0a.7.7,0,0,0-.7-.7h0a.71.71,0,0,0,0,1.41Z" transform="translate(0 -0.12)"/><path class="a" d="M224.21,221.76a.54.54,0,0,0,.55-.55.55.55,0,0,0-.55-.55.55.55,0,0,0-.55.55.55.55,0,0,0,.55.55Z" transform="translate(0 -0.12)"/><path class="a" d="M230.08,218.4a.4.4,0,0,0,.4-.4.39.39,0,0,0-.39-.39h0a.39.39,0,0,0-.39.37v0a.38.38,0,0,0,.38.4Z" transform="translate(0 -0.12)"/><path class="a" d="M235.08,214.8a.25.25,0,0,0,.26-.24.26.26,0,0,0-.24-.26.25.25,0,0,0-.26.24v0a.24.24,0,0,0,.24.24Z" transform="translate(0 -0.12)"/><path class="a" d="M239.15,211.17a.12.12,0,0,0,.13-.1v0a.13.13,0,0,0-.13-.13h0a.13.13,0,0,0-.13.13h0a.13.13,0,0,0,.13.13Z" transform="translate(0 -0.12)"/><circle class="a" cx="242.38" cy="207.31" r="0.04"/><path class="a" d="M32.72,219.4Z" transform="translate(0 -0.12)"/><circle class="a" cx="37.38" cy="222.84" r="0.09"/><path class="a" d="M42.88,226.61a.18.18,0,0,0,.18-.17.18.18,0,0,0-.18-.18.18.18,0,0,0-.17.18A.18.18,0,0,0,42.88,226.61Z" transform="translate(0 -0.12)"/><path class="a" d="M49.2,230a.31.31,0,1,0-.31-.31h0A.31.31,0,0,0,49.2,230Z" transform="translate(0 -0.12)"/><path class="a" d="M56.3,233.21a.39.39,0,1,0-.06-.77.41.41,0,0,0-.35.35.41.41,0,0,0,.4.42Z" transform="translate(0 -0.12)"/><path class="a" d="M64.12,236.2a.58.58,0,1,0-.58-.59.59.59,0,0,0,.57.59Z" transform="translate(0 -0.12)"/><circle class="a" cx="72.69" cy="238.06" r="0.7"/><path class="a" d="M81.87,241.29a.86.86,0,0,0,0-1.72.85.85,0,0,0-.86.86A.87.87,0,0,0,81.87,241.29Z" transform="translate(0 -0.12)"/><path class="a" d="M91.6,243.31a1,1,0,0,0,0-2,1,1,0,1,0,0,2Z" transform="translate(0 -0.12)"/><path class="a" d="M101.8,244.93a1.1,1.1,0,1,0-1.1-1.1,1.1,1.1,0,0,0,1.1,1.1Z" transform="translate(0 -0.12)"/><path class="a" d="M112.37,246.12a1.21,1.21,0,1,0-1.21-1.21,1.21,1.21,0,0,0,1.21,1.21Z" transform="translate(0 -0.12)"/><path class="a" d="M123.18,246.82a1.3,1.3,0,0,0,1.29-1.27,1.28,1.28,0,1,0-2.56,0v0a1.27,1.27,0,0,0,1.27,1.27Z" transform="translate(0 -0.12)"/><path class="a" d="M134.11,247a1.32,1.32,0,1,0-1.32-1.32,1.32,1.32,0,0,0,1.32,1.32Z" transform="translate(0 -0.12)"/><path class="a" d="M145,246.76a1.36,1.36,0,0,0,1.23-1.47,1.35,1.35,0,0,0-2.69,0,1.36,1.36,0,0,0,1.23,1.47Z" transform="translate(0 -0.12)"/><path class="a" d="M155.76,246a1.32,1.32,0,1,0-1.32-1.32,1.33,1.33,0,0,0,1.32,1.32Z" transform="translate(0 -0.12)"/><path class="a" d="M166.24,244.7a1.25,1.25,0,1,0-1.25-1.25A1.25,1.25,0,0,0,166.24,244.7Z" transform="translate(0 -0.12)"/><path class="a" d="M176.32,243a1.19,1.19,0,1,0-1.19-1.19,1.19,1.19,0,0,0,1.19,1.19Z" transform="translate(0 -0.12)"/><path class="a" d="M185.91,240.92a1.08,1.08,0,1,0-1.08-1.08A1.08,1.08,0,0,0,185.91,240.92Z" transform="translate(0 -0.12)"/><path class="a" d="M194.92,238.47a1,1,0,1,0-1-1A1,1,0,0,0,194.92,238.47Z" transform="translate(0 -0.12)"/><path class="a" d="M203.27,235.68a.82.82,0,0,0,.82-.82h0a.82.82,0,0,0-.82-.81.81.81,0,0,0-.81.81A.82.82,0,0,0,203.27,235.68Z" transform="translate(0 -0.12)"/><path class="a" d="M210.92,232.64a.68.68,0,1,0-.68-.68h0a.67.67,0,0,0,.65.68Z" transform="translate(0 -0.12)"/><path class="a" d="M217.8,229.4a.53.53,0,0,0,0-1.06.53.53,0,0,0-.53.53h0a.53.53,0,0,0,.51.53Z" transform="translate(0 -0.12)"/><path class="a" d="M223.89,225.88a.4.4,0,1,0-.4-.4h0A.4.4,0,0,0,223.89,225.88Z" transform="translate(0 -0.12)"/><path class="a" d="M229.16,222.24a.27.27,0,1,0-.27-.27.27.27,0,0,0,.27.27Z" transform="translate(0 -0.12)"/><circle class="a" cx="233.58" cy="218.18" r="0.15"/><path class="a" d="M237.14,214.58a.07.07,0,0,0,.06-.07.06.06,0,0,0-.06-.06.07.07,0,0,0-.07.06.07.07,0,0,0,.07.07Z" transform="translate(0 -0.12)"/><path class="a" d="M38.66,226.05Z" transform="translate(0 -0.12)"/><circle class="a" cx="43.57" cy="229.61" r="0.09"/><path class="a" d="M49.29,233.4a.18.18,0,0,0,.18-.18.18.18,0,0,0-.18-.17.18.18,0,0,0-.17.17A.18.18,0,0,0,49.29,233.4Z" transform="translate(0 -0.12)"/><path class="a" d="M55.79,236.84a.29.29,0,1,0-.29-.29h0A.29.29,0,0,0,55.79,236.84Z" transform="translate(0 -0.12)"/><circle class="a" cx="63.01" cy="239.48" r="0.4"/><path class="a" d="M70.92,242.9a.52.52,0,0,0,.53-.51h0a.53.53,0,0,0-1.06,0h0a.52.52,0,0,0,.52.52Z" transform="translate(0 -0.12)"/><path class="a" d="M79.47,245.47a.64.64,0,0,0,.64-.64.64.64,0,1,0-1.28,0h0A.64.64,0,0,0,79.47,245.47Z" transform="translate(0 -0.12)"/><path class="a" d="M88.58,247.68a.75.75,0,1,0-.75-.74h0A.75.75,0,0,0,88.58,247.68Z" transform="translate(0 -0.12)"/><path class="a" d="M98.16,249.51a.86.86,0,0,0,0-1.72.86.86,0,0,0,0,1.72Z" transform="translate(0 -0.12)"/><path class="a" d="M108.11,250.88a.92.92,0,0,0,.94-.92.93.93,0,0,0-.92-.94.94.94,0,0,0-.94.92v0A.93.93,0,0,0,108.11,250.88Z" transform="translate(0 -0.12)"/><path class="a" d="M118.39,251.81a1,1,0,1,0-1-1A1,1,0,0,0,118.39,251.81Z" transform="translate(0 -0.12)"/><path class="a" d="M128.81,252.26a1,1,0,1,0-1-1A1,1,0,0,0,128.81,252.26Z" transform="translate(0 -0.12)"/><path class="a" d="M139.26,252.19a1,1,0,0,0,0-2,1,1,0,0,0,0,2Z" transform="translate(0 -0.12)"/><path class="a" d="M149.65,251.64a1,1,0,1,0-1-1A1,1,0,0,0,149.65,251.64Z" transform="translate(0 -0.12)"/><path class="a" d="M159.84,250.62a1,1,0,1,0-1-1A1,1,0,0,0,159.84,250.62Z" transform="translate(0 -0.12)"/><path class="a" d="M169.71,249.13a.92.92,0,1,0-.92-.92h0A.92.92,0,0,0,169.71,249.13Z" transform="translate(0 -0.12)"/><circle class="a" cx="179.17" cy="246.26" r="0.84"/><path class="a" d="M188.09,244.91a.73.73,0,0,0,.72-.73.72.72,0,0,0-.72-.72h0a.73.73,0,1,0,0,1.45Z" transform="translate(0 -0.12)"/><path class="a" d="M196.51,242.25a.61.61,0,0,0,.61-.61h0a.61.61,0,0,0-.61-.61h0a.6.6,0,0,0-.62.6h0A.62.62,0,0,0,196.51,242.25Z" transform="translate(0 -0.12)"/><circle class="a" cx="204.24" cy="238.66" r="0.51"/><path class="a" d="M211.25,236a.38.38,0,0,0,.39-.37.37.37,0,0,0-.37-.39.37.37,0,0,0-.38.37s0,0,0,0A.37.37,0,0,0,211.25,236Z" transform="translate(0 -0.12)"/><circle class="a" cx="217.54" cy="232.17" r="0.26"/><path class="a" d="M223.08,228.87a.16.16,0,0,0,.16-.15.16.16,0,0,0-.16-.16h0a.17.17,0,0,0-.15.16A.15.15,0,0,0,223.08,228.87Z" transform="translate(0 -0.12)"/><circle class="a" cx="227.72" cy="224.83" r="0.07"/><circle class="a" cx="232.85" cy="222.06" r="0.02"/><path class="a" d="M49.92,235.76Z" transform="translate(0 -0.12)"/><path class="a" d="M55.8,239.4a.09.09,0,1,0-.09-.09h0A.09.09,0,0,0,55.8,239.4Z" transform="translate(0 -0.12)"/><path class="a" d="M62.39,242.71a.18.18,0,0,0,.18-.18.16.16,0,0,0-.17-.17h0a.17.17,0,0,0-.17.17A.19.19,0,0,0,62.39,242.71Z" transform="translate(0 -0.12)"/><path class="a" d="M69.68,245.78a.28.28,0,0,0,.28-.26.26.26,0,0,0-.26-.28.27.27,0,0,0-.28.26v0A.28.28,0,0,0,69.68,245.78Z" transform="translate(0 -0.12)"/><path class="a" d="M77.6,248.52a.35.35,0,0,0,.35-.35h0a.35.35,0,0,0-.35-.35h0a.35.35,0,0,0-.35.35h0a.33.33,0,0,0,.33.35Z" transform="translate(0 -0.12)"/><path class="a" d="M86.12,250.93a.44.44,0,0,0,.44-.44.44.44,0,0,0-.44-.44.44.44,0,0,0-.44.44.43.43,0,0,0,.44.44Z" transform="translate(0 -0.12)"/><path class="a" d="M95.05,253a.51.51,0,0,0,.52-.51h0a.53.53,0,0,0-.53-.53.53.53,0,0,0-.53.53h0A.52.52,0,0,0,95,253Z" transform="translate(0 -0.12)"/><path class="a" d="M104.41,254.57a.62.62,0,1,0,0-1.23h0a.62.62,0,0,0-.61.61h0a.61.61,0,0,0,.6.62Z" transform="translate(0 -0.12)"/><path class="a" d="M114.11,255.73a.69.69,0,1,0-.68-.7v0A.69.69,0,0,0,114.11,255.73Z" transform="translate(0 -0.12)"/><path class="a" d="M124,256.39a.73.73,0,0,0,.73-.73h0a.73.73,0,0,0-1.46,0h0a.72.72,0,0,0,.73.73Z" transform="translate(0 -0.12)"/><path class="a" d="M134,256.62a.77.77,0,0,0,0-1.54.77.77,0,0,0-.77.77h0A.76.76,0,0,0,134,256.62Z" transform="translate(0 -0.12)"/><path class="a" d="M143.94,256.32a.77.77,0,0,0,0-1.54.78.78,0,0,0-.77.77h0A.77.77,0,0,0,143.94,256.32Z" transform="translate(0 -0.12)"/><path class="a" d="M153.78,255.53a.75.75,0,0,0,0-1.5.76.76,0,0,0-.76.74v0A.74.74,0,0,0,153.78,255.53Z" transform="translate(0 -0.12)"/><path class="a" d="M163.39,254.3a.73.73,0,1,0-.73-.73A.73.73,0,0,0,163.39,254.3Z" transform="translate(0 -0.12)"/><circle class="a" cx="172.65" cy="251.8" r="0.66"/><path class="a" d="M181.49,250.47a.58.58,0,0,0,.59-.59.59.59,0,0,0-.59-.59.6.6,0,0,0-.59.59h0A.59.59,0,0,0,181.49,250.47Z" transform="translate(0 -0.12)"/><path class="a" d="M189.82,248a.53.53,0,1,0-.52-.53h0A.52.52,0,0,0,189.82,248Z" transform="translate(0 -0.12)"/><path class="a" d="M197.57,245.13a.42.42,0,0,0,.42-.42.42.42,0,1,0-.84,0A.42.42,0,0,0,197.57,245.13Z" transform="translate(0 -0.12)"/><path class="a" d="M204.67,242a.33.33,0,0,0,.33-.33.33.33,0,0,0-.33-.33.32.32,0,0,0-.33.33A.33.33,0,0,0,204.67,242Z" transform="translate(0 -0.12)"/><path class="a" d="M211.08,238.55a.25.25,0,0,0,.25-.24h0a.23.23,0,0,0-.24-.24h0a.24.24,0,0,0-.19.29A.26.26,0,0,0,211.08,238.55Z" transform="translate(0 -0.12)"/><path class="a" d="M216.74,234.87a.16.16,0,0,0,.16-.15.16.16,0,0,0-.16-.16h0a.16.16,0,0,0-.15.16A.15.15,0,0,0,216.74,234.87Z" transform="translate(0 -0.12)"/><circle class="a" cx="221.64" cy="230.78" r="0.07"/><circle class="a" cx="228.88" cy="230" r="0.02"/><path class="a" d="M56.34,240.94Z" transform="translate(0 -0.12)"/><circle class="a" cx="62.31" cy="244.28" r="0.07"/><path class="a" d="M69,247.72a.13.13,0,0,0,.13-.13.13.13,0,0,0-.26,0,.13.13,0,0,0,.13.13Z" transform="translate(0 -0.12)"/><circle class="a" cx="76.26" cy="250.34" r="0.2"/><circle class="a" cx="84.11" cy="252.87" r="0.29"/><circle class="a" cx="92.46" cy="255.02" r="0.35"/><circle class="a" cx="101.21" cy="256.77" r="0.42"/><circle class="a" cx="110.32" cy="258.09" r="0.46"/><circle class="a" cx="119.66" cy="258.96" r="0.51"/><circle class="a" cx="129.15" cy="259.36" r="0.53"/><path class="a" d="M138.66,260a.53.53,0,0,0,.5-.56.53.53,0,1,0-.56.56Z" transform="translate(0 -0.12)"/><path class="a" d="M148.1,259.39a.53.53,0,1,0-.53-.53h0A.53.53,0,0,0,148.1,259.39Z" transform="translate(0 -0.12)"/><circle class="a" cx="157.41" cy="257.77" r="0.51"/><path class="a" d="M166.43,256a.47.47,0,0,1,.46.46.46.46,0,0,1-.46.46.45.45,0,0,1-.46-.46A.46.46,0,0,1,166.43,256Z" transform="translate(0 -0.12)"/><circle class="a" cx="175.08" cy="254.46" r="0.4"/><path class="a" d="M183.29,252.66a.33.33,0,0,0,.33-.33.33.33,0,0,0-.66,0,.33.33,0,0,0,.33.33Z" transform="translate(0 -0.12)"/><circle class="a" cx="190.99" cy="249.57" r="0.26"/><circle class="a" cx="198.11" cy="246.62" r="0.2"/><circle class="a" cx="204.58" cy="243.34" r="0.11"/><circle class="a" cx="210.37" cy="239.78" r="0.07"/><circle class="a" cx="216.98" cy="237.93" r="0.02"/><circle class="a" cx="75.44" cy="251.59" r="0.04"/><circle class="a" cx="82.66" cy="254.33" r="0.09"/><circle class="a" cx="90.38" cy="256.69" r="0.13"/><circle class="a" cx="98.53" cy="258.66" r="0.2"/><path class="a" d="M107.05,260.57a.24.24,0,0,0,.26-.24.25.25,0,0,0-.24-.26.25.25,0,0,0-.26.24h0A.25.25,0,0,0,107.05,260.57Z" transform="translate(0 -0.12)"/><circle class="a" cx="115.84" cy="261.3" r="0.29"/><circle class="a" cx="124.8" cy="261.93" r="0.31"/><path class="a" d="M133.85,262.56a.33.33,0,1,0,0-.66.33.33,0,1,0,0,.66Z" transform="translate(0 -0.12)"/><circle class="a" cx="142.87" cy="261.8" r="0.33"/><circle class="a" cx="151.79" cy="261.04" r="0.33"/><circle class="a" cx="160.51" cy="259.81" r="0.31"/><circle class="a" cx="168.94" cy="258.15" r="0.26"/><path class="a" d="M177,256a.24.24,0,0,1,.24.24.23.23,0,0,1-.24.24.24.24,0,0,1-.24-.24A.24.24,0,0,1,177,256Z" transform="translate(0 -0.12)"/><path class="a" d="M184.56,253.9a.18.18,0,0,0,.18-.18.18.18,0,0,0-.18-.17.19.19,0,0,0-.17.17A.18.18,0,0,0,184.56,253.9Z" transform="translate(0 -0.12)"/><circle class="a" cx="191.63" cy="250.76" r="0.13"/><circle class="a" cx="198.12" cy="247.59" r="0.09"/><circle class="a" cx="205.08" cy="245.87" r="0.04"/><circle class="a" cx="81.74" cy="254.73" r="0.02"/><path class="a" d="M88.84,257.48Z" transform="translate(0 -0.12)"/><circle class="a" cx="96.38" cy="259.49" r="0.07"/><circle class="a" cx="104.3" cy="261.26" r="0.11"/><circle class="a" cx="112.51" cy="262.58" r="0.13"/><circle class="a" cx="120.94" cy="263.45" r="0.15"/><path class="a" d="M129.49,264.15a.18.18,0,0,0,.17-.17h0a.19.19,0,0,0-.17-.18.18.18,0,0,0-.18.18.17.17,0,0,0,.17.17Z" transform="translate(0 -0.12)"/><circle class="a" cx="138.06" cy="263.79" r="0.18"/><path class="a" d="M146.58,263.55a.17.17,0,0,0,.18-.17.18.18,0,0,0-.18-.18.19.19,0,0,0-.17.18A.18.18,0,0,0,146.58,263.55Z" transform="translate(0 -0.12)"/><circle class="a" cx="154.96" cy="262.26" r="0.15"/><path class="a" d="M163.1,261.06a.13.13,0,1,0-.13-.13.13.13,0,0,0,.13.13Z" transform="translate(0 -0.12)"/><circle class="a" cx="170.93" cy="258.92" r="0.11"/><circle class="a" cx="178.35" cy="256.63" r="0.07"/><circle class="a" cx="185.31" cy="253.94" r="0.04"/><path class="a" d="M109.7,263Z" transform="translate(0 -0.12)"/><path class="a" d="M117.57,264.07" transform="translate(0 -0.12)"/><circle class="a" cx="125.61" cy="264.54" r="0.04"/><circle class="a" cx="133.72" cy="264.71" r="0.04"/><circle class="a" cx="141.8" cy="264.41" r="0.07"/><circle class="a" cx="149.8" cy="263.64" r="0.04"/><path class="a" d="M157.62,262.54Z" transform="translate(0 -0.12)"/><circle class="a" cx="165.42" cy="261.73" r="0.02"/><circle class="a" cx="173.34" cy="261.73" r="0.02"/></svg>