<?xml version="1.0" encoding="utf-8"?>
<!-- Generator: Adobe Illustrator 23.0.0, SVG Export Plug-In . SVG Version: 6.00 Build 0)  -->
<svg version="1.1" id="Слой_1" xmlns="http://www.w3.org/2000/svg" xmlns:xlink="http://www.w3.org/1999/xlink" x="0px" y="0px"
	 viewBox="0 0 302.9 202.7" style="enable-background:new 0 0 302.9 202.7;" xml:space="preserve">
<title>July - logo</title>
<g>
	<path d="M122.2,74c-2.8,5.7-5.7,11.3-8.5,16.9c-2.9,5.6-5.7,11-8.4,16.1c-2.7,5.1-5.1,9.7-7.2,13.6c-0.3,0.7-0.4,1.3-0.3,1.8
		c0.1,0.5,0.5,0.8,1.1,0.8c0.7,0,1,0.2,0.9,0.6c0,0.4-0.4,0.7-1.1,0.9c-0.3,0.1-0.9,0.3-1.6,0.6c-0.7,0.3-1.5,0.6-2.1,0.8
		c-4.6,7.8-9.3,15.4-14.2,22.9c-4.9,7.4-10.3,14.6-16.2,21.6c-3,3.5-6.2,6.8-9.6,10.1c-3.4,3.2-7.1,6.2-11.1,9
		c-3.9,2.7-8.1,5.2-12.6,7.3c-4.5,2.1-9.3,3.8-14.6,5c-3.7,0.9-6.9,1-9.6,0.2c-2.7-0.7-4.6-2.1-5.8-4.1c-1.2-2-1.6-4.5-1.2-7.5
		c0.4-3,1.9-6.4,4.4-10c2.7-4.1,6.2-8.1,10.3-12.1c4.1-4,8.7-7.8,13.6-11.5c4.9-3.7,10.1-7.2,15.6-10.5c5.5-3.3,11-6.4,16.5-9.2
		c5.5-2.8,10.8-5.2,16.1-7.3c5.2-2.1,10.1-3.9,14.6-5.3c2.7-5.1,5.4-10.4,8.3-15.9c2.9-5.6,5.6-11,8.3-16.4
		c2.7-5.4,5.2-10.6,7.7-15.7c2.4-5.1,4.5-9.6,6.2-13.7c-5.5,0-11,0.7-16.5,2.2c-5.6,1.5-10.8,3.6-15.9,6.4c-5,2.8-9.6,6.2-13.9,10.1
		C71.1,85.5,67.5,90,64.5,95c-1.2,2-2.4,4.2-3.6,6.7c-1.2,2.5-2.1,5-2.7,7.7c-0.6,2.7-0.9,5.4-0.8,8.2c0.1,2.7,0.7,5.4,2,7.8
		c0.4,0.7,0.5,1.1,0.1,1.3c-0.3,0.2-0.7-0.1-1.1-0.8c-1.2-2.1-2.1-4.5-2.7-7.2c-0.6-2.7-0.9-5.5-0.9-8.5c0-3,0.5-6,1.2-9
		c0.8-3,2-5.9,3.5-8.7c2.7-4.7,6-8.8,9.8-12.1c3.8-3.4,7.7-6.2,11.9-8.6c4.1-2.4,8.3-4.3,12.6-5.8c4.2-1.5,8.2-2.7,11.9-3.7
		c3.7-1,7-1.7,9.9-2.2c2.9-0.5,5-1.1,6.4-1.6c1.2-0.2,2.1-0.5,2.9-1.1c0.8-0.5,1.4-1.1,1.9-1.7c0.3-0.3,0.7-0.5,1.1-0.4
		c0.4,0.1,0.8,0.2,1.2,0.5c0.4,0.2,0.6,0.5,0.8,0.9c0.2,0.3,0.2,0.6,0,0.9C127.7,62.8,125,68.3,122.2,74z M68,136.2
		c-7.8,3.7-15.4,8-22.9,12.8c-7.5,4.8-14.5,10-21,15.7c-6.5,5.6-12,11.5-16.4,17.6c-2.5,3.5-4,6.5-4.6,9.1c-0.6,2.6-0.4,4.6,0.6,6.1
		c1,1.5,2.6,2.4,4.8,2.9c2.2,0.4,4.9,0.2,8.1-0.6c5-1.3,9.6-3.1,13.9-5.3c4.3-2.2,8.3-4.7,12.1-7.5c3.7-2.8,7.2-5.8,10.4-8.9
		c3.2-3.2,6.2-6.3,8.9-9.5c2.1-2.3,4.4-5.3,7-8.9c2.6-3.6,5.2-7.4,7.8-11.3s5.1-7.8,7.5-11.6c2.4-3.8,4.4-7,6-9.7
		C83.2,129.4,75.8,132.5,68,136.2z"/>
	<path d="M146.6,119.6c-1.4,2.5-2.8,5-4,7.7c-1.3,2.6-2.4,5.2-3.4,7.7s-1.6,4.6-1.9,6.2c-0.2,1.5-0.3,2.6-0.1,3.2
		c0.2,0.7,0.5,1.1,0.9,1.2c0.4,0.1,0.9,0.1,1.6-0.1c0.6-0.2,1.2-0.3,1.8-0.5c0.6-0.2,1.3-0.4,2.1-0.8c0.8-0.4,1.5-0.7,2-1.1
		c1.3-0.9,2.1-1,2.2-0.3c0.1,0.7-0.3,1.5-1.3,2.4c-0.8,0.9-1.8,1.8-3,2.6c-1.2,0.8-2.3,1.4-3.4,1.8c-0.5,0.2-1.1,0.1-1.9-0.2
		c-0.7-0.3-1.4-0.8-2.1-1.4c-0.6-0.6-1.2-1.3-1.6-2.1c-0.5-0.8-0.7-1.6-0.7-2.4c0-1.6,0.2-3.2,0.6-5c0.4-1.7,0.8-3.4,1.4-5.1
		c0.6-1.7,1.2-3.3,1.9-4.9c0.7-1.6,1.3-3.1,1.9-4.5c0.5-1.2,0.5-2.3,0-3.1c-0.5-0.8-1.5-0.4-3,1.1c-2,2-4.6,4.5-7.8,7.5
		c-3.2,3-6.4,6-9.6,9c-3.2,2.9-6.2,5.6-9,7.8c-2.8,2.3-4.8,3.6-6.2,4c-2.2,0.7-4.1,0.4-5.5-1.1c-1.4-1.5-2-3.2-1.9-5.3
		c0.2-1.9,0.7-4.1,1.6-6.6c0.9-2.5,2-5,3.4-7.7s2.9-5.3,4.5-8c1.6-2.7,3.3-5.3,4.9-7.7c1.7-2.4,3.2-4.6,4.7-6.5
		c1.5-1.9,2.7-3.5,3.8-4.8c0.4-0.5,1-0.9,1.7-1.1c0.7-0.2,1.3-0.2,1.8-0.1c0.5,0.2,0.8,0.5,0.9,1.1c0.1,0.5-0.2,1.3-1,2.3
		c-1.9,2.3-3.9,5-6,8.1c-2.1,3.1-4.1,6.2-6,9.3c-1.9,3.2-3.6,6.2-5.2,9.2c-1.5,3-2.6,5.6-3.2,7.8c-1,3.4-1,5.6,0.1,6.5
		c1,1,2.6,0.9,4.7-0.3c3.2-2,6.7-4.6,10.3-7.9c3.6-3.3,7.2-6.7,10.7-10.3c3.5-3.6,6.9-7.1,10.1-10.5c3.2-3.4,6.1-6.2,8.6-8.5
		c0.7-0.7,1.4-1,2-0.7c0.6,0.2,1,0.7,1.4,1.4c0.3,0.7,0.5,1.5,0.6,2.2c0,0.8-0.1,1.4-0.3,1.8C149.3,115,148,117.1,146.6,119.6z"/>
	<path d="M154.6,122.6c1.2-4.7,2.8-9.4,4.9-14.3v-0.4C190.1,38.3,223,2.3,258.2,0.1c12.1-0.7,22.7,2.9,31.9,10.8
		c9.3,7.8,13.5,16.7,12.7,26.7c-0.4,3.2-1.3,6.3-2.7,9.2c-7.9,15-29.1,29.1-63.6,42.1c-11.9,4.6-23.9,8.6-36,12
		c-12.2,3.4-24.5,6.3-37.1,8.7c-1.4,3.9-2.6,8-3.5,12.3c-1,4.3-1.5,8.1-1.6,11.5c-0.2,3.9,0.4,6.7,1.7,8.5c1.3,1.7,2.9,2.7,4.9,3
		c1.9,0.2,4.1-0.1,6.3-1.1c2.3-1,4.4-2.2,6.4-3.7c1.1-0.8,2.1-1.7,2.9-2.6c0.9-0.9,1.8-1.8,2.7-2.8c0.7-0.7,1.1-0.9,1.4-0.8
		c0.3,0.1,0.1,0.6-0.6,1.6c-0.7,0.8-1.5,1.8-2.5,2.9c-1,1.1-2,2-2.9,2.9c-2.9,2.6-5.8,4.5-8.8,5.7c-3,1.2-5.7,1.7-8.1,1.4
		c-2.4-0.3-4.4-1.5-6-3.4c-1.6-2-2.4-4.9-2.5-8.8C152.9,131.8,153.4,127.3,154.6,122.6z M298.8,39.5c0.3-1.3,0.6-2.6,0.7-4
		c0.9-8.8-2.8-16.6-11.1-23.3c-8.3-7-18.4-10.3-30.2-9.8c-20.1,0.9-40.4,15.9-61.1,45.1c-6.3,8.7-12.1,17.9-17.4,27.5
		c-5.3,9.6-10.2,19.7-14.8,30.3h0.1c-0.2,0.4-0.3,0.8-0.5,1.2c-0.2,0.4-0.4,0.8-0.6,1.2c15.2-3.2,29.5-6.8,42.9-10.8
		c13.4-4.1,26.1-8.7,37.9-13.9c28.2-12.4,45.7-25.5,52.6-39.5C298,42.1,298.4,40.8,298.8,39.5z"/>
	<path d="M209.3,137.9c-2,1.6-4.3,3.2-6.7,4.9c-2.4,1.7-4.9,3.3-7.4,4.8c-2.5,1.5-4.6,2.7-6.5,3.5c-0.5,0.2-1.3,0.2-2.3,0
		c-1-0.2-2.1-0.6-3.1-1.2c-1-0.6-2-1.5-2.7-2.5c-0.8-1-1.2-2.3-1.2-3.8c0-1.3,0.3-3.1,1-5.2c0.7-2.1,1.5-4.4,2.5-6.7
		c1-2.4,2.1-4.8,3.2-7.2c1.2-2.4,2.2-4.7,3.2-6.7c1-2,1.8-3.8,2.5-5.2c0.7-1.5,1-2.3,1.1-2.7c0.2-1,0.7-1.7,1.5-2.1
		c0.8-0.4,1.6-0.4,2.4-0.2c0.7,0.2,1.3,0.8,1.6,1.7c0.3,0.9,0.1,2.1-0.6,3.6c-2.8,5.3-5,9.4-6.5,12.3c-1.5,2.9-2.6,5-3.3,6.3
		c-0.7,1.3-1.1,2.1-1.2,2.4c-0.1,0.3-0.2,0.6-0.3,0.8c-0.1,0.2-0.3,0.7-0.6,1.4c-0.3,0.7-0.9,2-1.9,4.1c-1,2.1-1.5,3.7-1.6,4.8
		c0,1.1,0.2,1.9,0.8,2.4c0.6,0.5,1.3,0.7,2.2,0.7c0.9,0,1.7-0.1,2.6-0.3c1.6-0.3,3.5-1.1,5.9-2.4c2.4-1.2,4.8-2.7,7.3-4.2
		c2.5-1.6,4.8-3.2,7-4.7c2.2-1.6,3.8-2.9,5-4c0.7-0.7,1.3-1.2,1.6-1.2c0.3-0.1,0.5,0,0.6,0.2c0,0.2-0.1,0.6-0.3,1.1
		c-0.2,0.5-0.6,1-1.1,1.4C212.8,135.1,211.3,136.4,209.3,137.9z M202.5,100.5c-1.8,1.7-3.4,2.5-4.6,2.2c-1.8-0.3-2.7-1-2.7-2.1
		c0-1.2,1-2.7,2.9-4.6c1.9-2,3.4-3.1,4.6-3.4c0.9-0.2,1.8,0.1,2.6,0.8c0.8,0.7,1.1,1.4,0.8,2.2C205.7,97,204.5,98.6,202.5,100.5z"/>
	<path d="M262.9,115.2c-1.9,1.3-4,2.1-6.3,2.4c-1.4,0.2-3.5,0.4-6.3,0.5c-2.8,0.1-5.8,0.2-9.1,0.2c-3.3,0.1-6.6,0.1-10,0.1
		c-3.3,0-6.2,0-8.7,0c-0.9,1.2-1.9,2.6-2.9,4.2c-1,1.5-2,3.2-2.9,4.9c-0.9,1.7-1.7,3.5-2.4,5.4c-0.7,1.9-1,3.8-1.1,5.8
		c-0.1,1.8,0.1,3.3,0.6,4.5c0.5,1.2,1.1,2.1,1.9,2.7c0.8,0.6,1.7,1,2.7,1.2c1,0.2,2.1,0.3,3.2,0.2c2.7-0.4,5.7-1.2,8.8-2.4
		c3.1-1.2,5.8-2.4,8-3.6c0.7-0.4,1.2-0.5,1.5-0.2c0.3,0.3,0.2,0.6-0.5,1.1c-0.9,0.7-2,1.4-3.2,2.2c-1.2,0.8-2.6,1.6-4.1,2.3
		c-1.5,0.7-3,1.4-4.7,2.1c-1.6,0.6-3.2,1.1-4.7,1.3c-1.2,0.3-2.6,0.1-4.1-0.4c-1.5-0.5-2.9-1.3-4.1-2.4c-1.2-1.1-2.3-2.3-3.1-3.8
		c-0.8-1.5-1.2-3-1.1-4.7c0.2-4.6,1.5-9.1,3.8-13.7c2.3-4.6,5.1-8.8,8.3-12.8c3.3-3.9,6.7-7.3,10.3-10.2c3.6-2.9,6.9-4.9,9.8-6
		c1.6-0.5,3-0.4,4.2,0.2c1.2,0.6,2.2,1.5,2.9,2.7c0.7,1.2,1.1,2.6,1.2,4c0.1,1.5-0.2,2.9-0.9,4.1c-1.2,2.3-3.5,4.3-6.7,5.9
		c-3.2,1.6-6.9,2.7-11.1,3.4c2.2,0,4.5,0,6.8,0c2.4,0,4.7,0,6.8-0.1c2.2,0,4.2-0.1,6-0.2c1.9-0.1,3.5-0.2,4.8-0.4
		c1.7-0.2,3.5-0.7,5.3-1.6c1.8-0.9,3.2-1.8,4.2-2.7c0.4-0.6,0.8-0.8,1.1-0.6c0.3,0.2,0.2,0.5-0.2,1.1
		C266.1,112.8,264.7,113.9,262.9,115.2z M248.3,102.6c0.1-1-0.1-1.8-0.6-2.3c-0.5-0.5-1.2-0.8-2.2-0.7c-1,0-2.1,0.4-3.3,1.1
		c-3.1,1.7-6.2,4-9.3,6.9c-3.2,2.9-6.1,5.8-9,8.9c2.2,0,4.4-0.2,6.7-0.7c2.3-0.5,4.5-1.2,6.6-2.2c2.1-1,4-2.1,5.7-3.3
		c1.7-1.2,3-2.6,4-4.1C247.7,104.7,248.2,103.6,248.3,102.6z"/>
</g>
</svg>
