<svg xmlns="http://www.w3.org/2000/svg" fill="#ffe431" viewBox="0 0 100 79.98">
    <title>website-development-symbol</title>
    <path d="M62.92,94.73A4.89,4.89,0,0,1,61,91.54l-.65-4.15H39.64L39,91.54a4.89,4.89,0,0,1-1.91,3.19C35.34,96,34,97.1,35.34,97.28s13.74,0,14.66,0,13.34.18,14.65,0S64.65,96,62.92,94.73Z"
          transform="translate(0 -17.39)"/>
    <path d="M96,17.39H4a4,4,0,0,0-4,4v58a4,4,0,0,0,4,4H96a4,4,0,0,0,4-4v-58A4,4,0,0,0,96,17.39Zm-2,54H6v-48H94Z"
          transform="translate(0 -17.39)"/>
    <path d="M31.12,60.82,17.18,49.07,31.12,37.34l3.22,3.27L24.08,49l10.26,8.52Z" transform="translate(0 -17.39)"/>
    <path d="M44.75,64.79H39.84L54.28,31.11H59.2Z" transform="translate(0 -17.39)"/>
    <path d="M68.88,37.34,82.82,49.07,68.88,60.82l-3.2-3.27,10.24-8.44-10.24-8.5Z" transform="translate(0 -17.39)"/>
</svg>